0
SECTION
2
HEADER
9
$INSUNITS
70
4
9
$ACADVER
1
AC1014
9
$HANDSEED
5
FFFF
0
ENDSEC
0
SECTION
2
TABLES
0
TABLE
2
VPORT
5
8
100
AcDbSymbolTable
0
ENDTAB
0
TABLE
2
LTYPE
5
5
100
AcDbSymbolTable
0
LTYPE
5
14
100
AcDbSymbolTableRecord
100
AcDbLinetypeTableRecord
2
BYBLOCK
70
0
0
LTYPE
5
15
100
AcDbSymbolTableRecord
100
AcDbLinetypeTableRecord
2
BYLAYER
70
0
0
ENDTAB
0
TABLE
2
LAYER
5
2
100
AcDbSymbolTable
70
2
0
LAYER
5
50
100
AcDbSymbolTableRecord
100
AcDbLayerTableRecord
2
0
70
0
6
CONTINUOUS
0
ENDTAB
0
TABLE
2
STYLE
5
3
100
AcDbSymbolTable
70
1
0
STYLE
5
11
100
AcDbSymbolTableRecord
100
AcDbTextStyleTableRecord
2
STANDARD
70
0
0
ENDTAB
0
TABLE
2
VIEW
5
6
100
AcDbSymbolTable
70
0
0
ENDTAB
0
TABLE
2
UCS
5
7
100
AcDbSymbolTable
70
0
0
ENDTAB
0
TABLE
2
APPID
5
9
100
AcDbSymbolTable
70
2
0
APPID
5
12
100
AcDbSymbolTableRecord
100
AcDbRegAppTableRecord
2
ACAD
70
0
0
ENDTAB
0
TABLE
2
DIMSTYLE
5
A
100
AcDbSymbolTable
70
1
0
ENDTAB
0
TABLE
2
BLOCK_RECORD
5
1
100
AcDbSymbolTable
70
1
0
BLOCK_RECORD
5
1F
100
AcDbSymbolTableRecord
100
AcDbBlockTableRecord
2
*MODEL_SPACE
0
BLOCK_RECORD
5
1B
100
AcDbSymbolTableRecord
100
AcDbBlockTableRecord
2
*PAPER_SPACE
0
ENDTAB
0
ENDSEC
0
SECTION
2
BLOCKS
0
BLOCK
5
20
100
AcDbEntity
100
AcDbBlockBegin
2
*MODEL_SPACE
0
ENDBLK
5
21
100
AcDbEntity
100
AcDbBlockEnd
0
BLOCK
5
1C
100
AcDbEntity
100
AcDbBlockBegin
2
*PAPER_SPACE
0
ENDBLK
5
1D
100
AcDbEntity
100
AcDbBlockEnd
0
ENDSEC
0
SECTION
2
ENTITIES
0
SPLINE
5
100
100
AcDbEntity
8
0
100
AcDbSpline
70
0
71
3
72
12
73
8
74
0
42
0.000000001
43
0.0000000001
44
0.0000000001
40
0
40
0
40
0
40
0
40
0.39064447338692648
40
0.39064447338692648
40
0.72853717277265173
40
0.72853717277265173
40
1.0664298721583778
40
1.0664298721583778
40
1.0664298721583778
40
1.0664298721583778
10
-6.3725180913749302
20
-31.952732569197945
30
0
10
-7.6060684153485809
20
-31.535667047727408
30
0
10
-8.7463631553868204
20
-30.881649091607922
30
0
10
-10.579351286046141
20
-29.288677311606946
30
0
10
-11.298586919594323
20
-28.411517795565004
30
0
10
-12.414436208396806
20
-26.45469174296009
30
0
10
-12.803073223373495
20
-25.389013562767584
30
0
10
-13.005988553635618
20
-24.281133908828039
30
0
0
SPLINE
5
101
100
AcDbEntity
8
0
100
AcDbSpline
70
4
71
5
72
14
73
8
74
0
42
0.000000001
43
0.0000000001
44
0.0000000001
40
-0.95819346372593117
40
-0.95819346372593117
40
-0.95819346372593117
40
-0.95819346372593117
40
-0.95819346372593117
40
-0.95819346372593117
40
-0.92000000000000026
40
-0.88000000000000023
40
-0.84976469608904281
40
-0.84976469608904281
40
-0.84976469608904281
40
-0.84976469608904281
40
-0.84976469608904281
40
-0.84976469608904281
41
1
41
1
41
1
41
1
41
1
41
1
41
1
41
1
10
-6.3725180913749213
20
-31.952732569197948
30
0
10
-5.4712047166293836
20
-32.257468197198683
30
0
10
-3.642067456592939
20
-32.85770480564382
30
0
10
-1.1515521553321728
20
-33.622668194076454
30
0
10
1.2747476180337589
20
-34.293180453563991
30
0
10
3.6354250027382755
20
-34.866363116875718
30
0
10
5.1364798895868082
20
-35.195585221835103
30
0
10
5.7774076743065939
20
-35.329401054987677
30
0
0
SPLINE
5
102
100
AcDbEntity
8
0
100
AcDbSpline
70
0
71
3
72
14
73
10
74
0
42
0.000000001
43
0.0000000001
44
0.0000000001
40
0
40
0
40
0
40
0
40
0.19532223669346369
40
0.19532223669346369
40
0.39064447338692754
40
0.39064447338692754
40
0.532144825541643
40
0.532144825541643
40
0.67364517769635801
40
0.67364517769635801
40
0.67364517769635801
40
0.67364517769635801
10
9.7544101413411575
20
-40.11852721166786
30
0
10
9.7406940272071516
20
-39.467597583400092
30
0
10
9.599968015676815
20
-38.825570259254022
30
0
10
9.0803382882473755
20
-37.631595805027047
30
0
10
8.7064025157625764
20
-37.091063721494905
30
0
10
7.9010709320351662
20
-36.308765469327412
30
0
10
7.5179403752162797
20
-36.029639128945952
30
0
10
6.6848771142679562
20
-35.587046979936062
30
0
10
6.2391196125032611
20
-35.425799384345936
30
0
10
5.7774076743062066
20
-35.329401054987599
30
0
0
LINE
5
103
100
AcDbEntity
8
0
100
AcDbLine
10
9.7544101413411575
20
-40.11852721166786
30
0
11
10.006263553305207
21
-52.070808027215023
31
0
0
ARC
5
104
100
AcDbEntity
8
0
100
AcDbCircle
10
15.005153894367552
20
-51.965473521787985
30
0
40
4.9999999999999991
210
0
220
0
230
1
100
AcDbArc
50
181.20713382139019
51
271.2071338213903
0
LINE
5
105
100
AcDbEntity
8
0
100
AcDbLine
10
15.11048839979459
20
-56.964363862850334
30
0
11
29.207359161590418
21
-56.667320557546084
31
0
0
ARC
5
106
100
AcDbEntity
8
0
100
AcDbCircle
10
29.10202465616338
20
-51.668430216483749
30
0
40
4.9999999999999902
210
0
220
0
230
1
100
AcDbArc
50
-88.792866178609685
51
1.2071338213901646
0
LINE
5
107
100
AcDbEntity
8
0
100
AcDbLine
10
34.100914997225729
20
-51.563095711056718
30
0
11
33.69010636040818
21
-32.067230436075555
31
0
0
SPLINE
5
108
100
AcDbEntity
8
0
100
AcDbSpline
70
0
71
3
72
10
73
6
74
0
42
0.000000001
43
0.0000000001
44
0.0000000001
40
0
40
0
40
0
40
0
40
0.16795783022612032
40
0.16795783022612032
40
0.3359156604522413
40
0.3359156604522413
40
0.3359156604522413
40
0.3359156604522413
10
34.706153470390277
20
-28.939155485847124
30
0
10
34.36769151942655
20
-29.385121957329147
30
0
10
34.106524341563031
20
-29.884785038900041
30
0
10
33.760612588104941
20
-30.949733583462042
30
0
10
33.678311857088531
20
-31.507495252593472
30
0
10
33.69010636040818
20
-32.067230436075569
30
0
0
SPLINE
5
109
100
AcDbEntity
8
0
100
AcDbSpline
70
4
71
5
72
24
73
18
74
0
42
0.000000001
43
0.0000000001
44
0.0000000001
40
-0.49298870186637056
40
-0.49298870186637056
40
-0.49298870186637056
40
-0.49298870186637056
40
-0.49298870186637056
40
-0.49298870186637056
40
-0.47999999999999993
40
-0.43999999999999995
40
-0.39999999999999997
40
-0.35999999999999999
40
-0.32000000000000001
40
-0.28000000000000003
40
-0.24000000000000002
40
-0.20000000000000001
40
-0.16
40
-0.12
40
-0.080000000000000002
40
-0.040000000000000001
40
0
40
0
40
0
40
0
40
0
40
0
41
1
41
1
41
1
41
1
41
1
41
1
41
1
41
1
41
1
41
1
41
1
41
1
41
1
41
1
41
1
41
1
41
1
41
1
10
34.706153470390255
20
-28.939155485847124
30
0
10
34.832667358321146
20
-28.772457421165527
30
0
10
35.340234315061828
20
-28.085286655809423
30
0
10
36.168840982802784
20
-26.830382826038239
30
0
10
37.189545353082956
20
-24.933032145123736
30
0
10
38.187445174241077
20
-22.349613086095346
30
0
10
38.865403196414753
20
-19.337883399554951
30
0
10
39.091996124495765
20
-16.412732050681711
30
0
10
38.955244024781905
20
-13.631531115651942
30
0
10
38.606563705312638
20
-10.98899025592897
30
0
10
38.222719458446043
20
-8.4447069236841958
30
0
10
37.978220966137137
20
-5.9411665431516036
30
0
10
38.010913432283637
20
-3.4267974533752388
30
0
10
38.398177615560165
20
-0.87237150359473459
30
0
10
39.021072409668939
20
1.2148752275661319
30
0
10
39.66877632070225
20
2.8068701991198015
30
0
10
40.180620944537246
20
3.8799814412808886
30
0
10
40.456552945848109
20
4.4194819379671593
30
0
0
LINE
5
110
100
AcDbEntity
8
0
100
AcDbLine
10
40.456552945848109
20
4.4194819379671593
30
0
11
54.806315932922146
21
31.120752755641089
31
0
0
ARC
5
111
100
AcDbEntity
8
0
100
AcDbCircle
10
50.402044685925489
20
33.487690605031879
30
0
40
5.0000000000000178
210
-0
220
0
230
1
100
AcDbArc
50
-28.254416686603161
51
61.077705462321354
0
LINE
5
112
100
AcDbEntity
8
0
100
AcDbLine
10
52.820159692750657
20
37.864072651170808
30
0
11
26.666323132326522
21
52.315046996203179
31
0
0
SPLINE
5
113
100
AcDbEntity
8
0
100
AcDbSpline
70
0
71
3
72
14
73
10
74
0
42
0.000000001
43
0.0000000001
44
0.0000000001
40
0
40
0
40
0
40
0
40
0.19532223669346555
40
0.19532223669346555
40
0.39064447338692898
40
0.39064447338692898
40
0.55094043728669817
40
0.55094043728669817
40
0.71123640118646636
40
0.71123640118646636
40
0.71123640118646636
40
0.71123640118646636
10
20.288842524049862
20
50.992093192882919
30
0
10
20.686444146696754
20
51.507661289658046
30
0
10
21.180946394951427
20
51.940639836173318
30
0
10
22.308084045169203
20
52.592675700552391
30
0
10
22.929943396858739
20
52.80549920016572
30
0
10
24.104546548728216
20
52.965081077402445
30
0
10
24.642126286285286
20
52.951680630910559
30
0
10
25.692555039902487
20
52.755236316157195
30
0
10
26.198645546673536
20
52.573456380096218
30
0
10
26.666323132326522
20
52.315046996203201
30
0
0
SPLINE
5
114
100
AcDbEntity
8
0
100
AcDbSpline
70
4
71
5
72
21
73
15
74
0
42
0.000000001
43
0.0000000001
44
0.0000000001
40
0.032132181414730267
40
0.032132181414730267
40
0.032132181414730267
40
0.032132181414730267
40
0.032132181414730267
40
0.032132181414730267
40
0.10000000000000001
40
0.20000000000000001
40
0.30000000000000004
40
0.40000000000000002
40
0.5
40
0.59999999999999998
40
0.69999999999999996
40
0.79999999999999993
40
0.89999999999999991
40
0.90550240984644725
40
0.90550240984644725
40
0.90550240984644725
40
0.90550240984644725
40
0.90550240984644725
40
0.90550240984644725
41
1
41
1
41
1
41
1
41
1
41
1
41
1
41
1
41
1
41
1
41
1
41
1
41
1
41
1
41
1
10
20.288842524049883
20
50.992093192882948
30
0
10
19.190770047311506
20
49.568227935029299
30
0
10
16.519167699663505
20
46.065800505076346
30
0
10
12.43206321837614
20
40.553942374312307
30
0
10
7.2120005273468646
20
33.156256382970568
30
0
10
1.3058438635555483
20
24.068229618950703
30
0
10
-4.0570577540082011
20
14.771156122320104
30
0
10
-8.3512312265482329
20
5.941612885495009
30
0
10
-11.459954852326131
20
-2.3693385303815493
30
0
10
-13.306090246528665
20
-10.127952846634464
30
0
10
-13.798197161730013
20
-15.980523443152823
30
0
10
-13.62174445433193
20
-20.150423916729338
30
0
10
-13.264433548884888
20
-22.8510061611812
30
0
10
-13.018959703706489
20
-24.210313861702275
30
0
10
-13.005988553635628
20
-24.281133908828046
30
0
0
LWPOLYLINE
5
115
100
AcDbEntity
8
0
100
AcDbPolyline
90
4
70
1
43
0.0
10
5.7988425503781249
20
-15.056850724875805
42
0.52114379161375501
10
6.0095115612322036
20
-25.05463140700051
10
12.996522661019119
20
-24.907404060850542
42
0.52114379161375401
10
12.785853650165038
20
-14.909623378725843
0
CIRCLE
5
116
100
AcDbEntity
8
0
100
AcDbCircle
10
11.253085378550542
20
22.324158874704594
30
0
40
2.7499999999999991
210
0
220
0
230
1
0
SPLINE
5
117
100
AcDbEntity
8
0
100
AcDbSpline
70
4
71
5
72
21
73
15
74
0
42
0.000000001
43
0.0000000001
44
0.0000000001
40
-1
40
-1
40
-1
40
-1
40
-1
40
-1
40
-0.89999999999999991
40
-0.79999999999999993
40
-0.69999999999999996
40
-0.59999999999999998
40
-0.5
40
-0.40000000000000002
40
-0.30000000000000004
40
-0.20000000000000001
40
-0.10000000000000001
40
0
40
0
40
0
40
0
40
0
40
0
41
1
41
1
41
1
41
1
41
1
41
1
41
1
41
1
41
1
41
1
41
1
41
1
41
1
41
1
41
1
10
16.254876479632756
20
-51.939139895431254
30
0
10
16.155874629168938
20
-51.741181624397313
30
0
10
15.966148760177807
20
-51.345090655350148
30
0
10
15.706392691451541
20
-50.750430936877954
30
0
10
15.410540405901809
20
-49.956487426421518
30
0
10
15.130584581715368
20
-48.962164556222596
30
0
10
14.948518951179675
20
-47.965778985204075
30
0
10
14.872332098623662
20
-46.96716238129585
30
0
10
14.906385148996753
20
-45.966222848721216
30
0
10
15.046316977352514
20
-44.963052283271423
30
0
10
15.284138999364906
20
-43.957819017030289
30
0
10
15.546284243182358
20
-43.152117618367697
30
0
10
15.780760030614223
20
-42.54704365502328
30
0
10
15.953632378744675
20
-42.143312169536784
30
0
10
16.044207468778708
20
-41.941359213306526
30
0
0
LINE
5
118
100
AcDbEntity
8
0
100
AcDbLine
10
16.044207468778708
20
-41.941359213306541
30
0
11
27.641633060044111
21
-41.696983160715803
31
0
0
SPLINE
5
119
100
AcDbEntity
8
0
100
AcDbSpline
70
4
71
5
72
21
73
15
74
0
42
0.000000001
43
0.0000000001
44
0.0000000001
40
0
40
0
40
0
40
0
40
0
40
0
40
0.10000000000000001
40
0.20000000000000001
40
0.30000000000000004
40
0.40000000000000002
40
0.5
40
0.59999999999999998
40
0.69999999999999996
40
0.79999999999999993
40
0.89999999999999991
40
1
40
1
40
1
40
1
40
1
40
1
41
1
41
1
41
1
41
1
41
1
41
1
41
1
41
1
41
1
41
1
41
1
41
1
41
1
41
1
41
1
10
27.641633060044111
20
-41.696983160715803
30
0
10
27.740634910507005
20
-41.894941431748123
30
0
10
27.930360779496489
20
-42.291032400792915
30
0
10
28.190116848220871
20
-42.885692119264192
30
0
10
28.485969133769053
20
-43.679635629723307
30
0
10
28.765924957955345
20
-44.673958499927487
30
0
10
28.94799058849263
20
-45.670344070948296
30
0
10
29.024177441052142
20
-46.668960674852791
30
0
10
28.990124390683775
20
-47.669900207417172
30
0
10
28.850192562332527
20
-48.673070772854281
30
0
10
28.612370540322352
20
-49.678304039086655
30
0
10
28.350225296503506
20
-50.48400543775184
30
0
10
28.115749509068131
20
-51.089079401106339
30
0
10
27.942877160934213
20
-51.492810886603742
30
0
10
27.852302070898169
20
-51.694763842840487
30
0
0
LINE
5
120
100
AcDbEntity
8
0
100
AcDbLine
10
27.852302070898162
20
-51.694763842840473
30
0
11
16.254876479632756
21
-51.939139895431254
31
0
0
CIRCLE
5
121
100
AcDbEntity
8
0
100
AcDbCircle
10
0
20
0
30
0
40
2.75
210
0
220
0
230
1
0
CIRCLE
5
122
100
AcDbEntity
8
0
100
AcDbCircle
10
28.960831549390349
20
24.146491059226364
30
0
40
4.7999999999999998
210
0
220
0
230
1
0
ENDSEC
0
SECTION
2
OBJECTS
0
DICTIONARY
5
C
100
AcDbDictionary
3
ACAD_GROUP
350
D
3
ACAD_MLINESTYLE
350
17
0
DICTIONARY
5
D
100
AcDbDictionary
0
DICTIONARY
5
1A
330
C
100
AcDbDictionary
0
DICTIONARY
5
17
100
AcDbDictionary
0
ENDSEC
0
EOF
