0
SECTION
2
HEADER
9
$INSUNITS
70
4
9
$ACADVER
1
AC1014
9
$HANDSEED
5
FFFF
0
ENDSEC
0
SECTION
2
TABLES
0
TABLE
2
VPORT
5
8
100
AcDbSymbolTable
0
ENDTAB
0
TABLE
2
LTYPE
5
5
100
AcDbSymbolTable
0
LTYPE
5
14
100
AcDbSymbolTableRecord
100
AcDbLinetypeTableRecord
2
BYBLOCK
70
0
0
LTYPE
5
15
100
AcDbSymbolTableRecord
100
AcDbLinetypeTableRecord
2
BYLAYER
70
0
0
ENDTAB
0
TABLE
2
LAYER
5
2
100
AcDbSymbolTable
70
2
0
LAYER
5
50
100
AcDbSymbolTableRecord
100
AcDbLayerTableRecord
2
0
70
0
6
CONTINUOUS
0
ENDTAB
0
TABLE
2
STYLE
5
3
100
AcDbSymbolTable
70
1
0
STYLE
5
11
100
AcDbSymbolTableRecord
100
AcDbTextStyleTableRecord
2
STANDARD
70
0
0
ENDTAB
0
TABLE
2
VIEW
5
6
100
AcDbSymbolTable
70
0
0
ENDTAB
0
TABLE
2
UCS
5
7
100
AcDbSymbolTable
70
0
0
ENDTAB
0
TABLE
2
APPID
5
9
100
AcDbSymbolTable
70
2
0
APPID
5
12
100
AcDbSymbolTableRecord
100
AcDbRegAppTableRecord
2
ACAD
70
0
0
ENDTAB
0
TABLE
2
DIMSTYLE
5
A
100
AcDbSymbolTable
70
1
0
ENDTAB
0
TABLE
2
BLOCK_RECORD
5
1
100
AcDbSymbolTable
70
1
0
BLOCK_RECORD
5
1F
100
AcDbSymbolTableRecord
100
AcDbBlockTableRecord
2
*MODEL_SPACE
0
BLOCK_RECORD
5
1B
100
AcDbSymbolTableRecord
100
AcDbBlockTableRecord
2
*PAPER_SPACE
0
ENDTAB
0
ENDSEC
0
SECTION
2
BLOCKS
0
BLOCK
5
20
100
AcDbEntity
100
AcDbBlockBegin
2
*MODEL_SPACE
0
ENDBLK
5
21
100
AcDbEntity
100
AcDbBlockEnd
0
BLOCK
5
1C
100
AcDbEntity
100
AcDbBlockBegin
2
*PAPER_SPACE
0
ENDBLK
5
1D
100
AcDbEntity
100
AcDbBlockEnd
0
ENDSEC
0
SECTION
2
ENTITIES
0
LWPOLYLINE
5
100
100
AcDbEntity
8
OUTER_PROFILES
100
AcDbPolyline
90
5
10
-47.535312416963563
20
15.000000000000002
30
0
10
-48.353874478136518
20
15.17518328134441
30
0
10
-49.028982099490705
20
15.669981088506091
30
0
10
-49.442500847353053
20
16.397810622244538
30
0
10
-49.521764233697411
20
17.232398751706647
30
0
0
LINE
5
101
100
AcDbEntity
8
OUTER_PROFILES
100
AcDbLine
10
-47.535312416963563
20
15.000000000000002
30
0
11
-23.358464845852822
21
15.000000000000011
31
0
0
ARC
5
102
100
AcDbEntity
8
OUTER_PROFILES
100
AcDbCircle
10
26.852745887784049
20
10.000000000000009
30
0
40
6.0999999999999996
210
0
220
0
230
-1
100
AcDbArc
50
124.9480137199057
51
235.05198628009427
0
LINE
5
103
100
AcDbEntity
8
OUTER_PROFILES
100
AcDbLine
10
-23.358464845852819
20
5.0000000000000071
30
0
11
-45.893818356755816
21
5
31
0
0
LWPOLYLINE
5
104
100
AcDbEntity
8
OUTER_PROFILES
100
AcDbPolyline
90
5
10
-47.499806276616425
20
1.8080256708880871
30
0
10
-47.886378574706576
20
2.8276613064850937
30
0
10
-47.680803851876867
20
3.8981549280361016
30
0
10
-46.943672641999534
20
4.7022941199214578
30
0
10
-45.893818356755816
20
5
30
0
0
LWPOLYLINE
5
105
100
AcDbEntity
8
OUTER_PROFILES
100
AcDbPolyline
90
5
10
-42.871630231209465
20
-1.6357192603479209
30
0
10
-44.206482698464818
20
-1.0391679181372584
30
0
10
-45.43803129364175
20
-0.25587831444903425
30
0
10
-46.545326515015461
20
0.70122408137809678
30
0
10
-47.499806276616425
20
1.8080256708880871
30
0
0
LWPOLYLINE
5
106
100
AcDbEntity
8
OUTER_PROFILES
100
AcDbPolyline
90
12
10
-3.4723314528722415
20
-1.4023737991011176
30
0
10
-5.1055357280526668
20
-2.8052684114281106
30
0
10
-6.8845953622960359
20
-4.0004799238341082
30
0
10
-8.7974852604767193
20
-4.9796866622459852
30
0
10
-10.834153809701217
20
-5.7427240388428222
30
0
10
-12.98620999553836
20
-6.2955676270529928
30
0
10
-15.246688398588869
20
-6.6485112914803066
30
0
10
-20.070653497437434
20
-6.8066776919213066
30
0
10
-25.269162820111543
20
-6.3187635395249444
30
0
10
-30.814403171080123
20
-5.263241546995987
30
0
10
-36.686233008483804
20
-3.6921134032953433
30
0
10
-42.871630231209465
20
-1.6357192603479209
30
0
0
LWPOLYLINE
5
107
100
AcDbEntity
8
OUTER_PROFILES
100
AcDbPolyline
90
3
10
0
20
0
30
0
10
-1.8724140828761096
20
-0.36383072976760439
30
0
10
-3.4723314528722415
20
-1.4023737991011176
30
0
0
LINE
5
108
100
AcDbEntity
8
OUTER_PROFILES
100
AcDbLine
10
0
20
0
30
0
11
38.223956768582781
21
0
31
0
0
ARC
5
109
100
AcDbEntity
8
OUTER_PROFILES
100
AcDbCircle
10
-38.223956768582781
20
1.9999999999999973
30
0
40
2.0000000000000018
210
0
220
-0
230
-1
100
AcDbArc
50
180
51
270
0
LINE
5
110
100
AcDbEntity
8
OUTER_PROFILES
100
AcDbLine
10
40.223956768582781
20
1.9999999999999896
30
0
11
40.223956768582809
21
18
31
0
0
ARC
5
111
100
AcDbEntity
8
OUTER_PROFILES
100
AcDbCircle
10
-38.223956768582816
20
18.000000000000004
30
0
40
2.0000000000000018
210
0
220
0
230
-1
100
AcDbArc
50
90
51
180
0
LINE
5
112
100
AcDbEntity
8
OUTER_PROFILES
100
AcDbLine
10
38.223956768582816
20
20.000000000000004
30
0
11
7.1247084107502978
21
20.000000000000018
31
0
0
LWPOLYLINE
5
113
100
AcDbEntity
8
OUTER_PROFILES
100
AcDbPolyline
90
9
10
2.1387131193143372
20
25.373966514247329
30
0
10
2.1673628659554685
20
24.348306848599449
30
0
10
2.404922356985812
20
23.349660821027953
30
0
10
2.8409540006657839
20
22.421351415646775
30
0
10
3.4580730403726569
20
21.600620097516135
30
0
10
4.2285570731168045
20
20.924182208154907
30
0
10
5.1226678218387729
20
20.41831549423862
30
0
10
6.1021269611006108
20
20.105684209295681
30
0
10
7.1247084107502978
20
20.000000000000018
30
0
0
LWPOLYLINE
5
114
100
AcDbEntity
8
OUTER_PROFILES
100
AcDbPolyline
90
5
10
4.7132977918495378
20
33.741879688772507
30
0
10
3.6842770856174378
20
31.603646469539729
30
0
10
2.9165602040077236
20
29.498003545181696
30
0
10
2.4058010774484666
20
27.423121847483639
30
0
10
2.1387131193143372
20
25.373966514247329
30
0
0
LINE
5
115
100
AcDbEntity
8
OUTER_PROFILES
100
AcDbLine
10
4.7132977918495378
20
33.741879688772507
30
0
11
19.622389141543831
21
60.134919608236792
31
0
0
ARC
5
116
100
AcDbEntity
8
OUTER_PROFILES
100
AcDbCircle
10
-15.268959387886243
20
62.594116505593497
30
0
40
5.0000000000000009
210
0
220
0
230
-1
100
AcDbArc
50
120.12942835906878
51
209.46155050799388
0
LINE
5
117
100
AcDbEntity
8
OUTER_PROFILES
100
AcDbLine
10
17.778734545803427
20
66.918585103780075
30
0
11
-8.0648603998075039
21
81.917332606066878
31
0
0
LWPOLYLINE
5
118
100
AcDbEntity
8
OUTER_PROFILES
100
AcDbPolyline
90
5
10
-14.468796179327907
20
80.729026161397684
30
0
10
-13.138371215587576
20
81.885562312246108
30
0
10
-11.489023555329489
20
82.508542010685971
30
0
10
-9.7240780003182117
20
82.519988062982392
30
0
10
-8.0648603998075039
20
81.917332606066878
30
0
0
LWPOLYLINE
5
119
100
AcDbEntity
8
OUTER_PROFILES
100
AcDbPolyline
90
14
10
-14.468796179327907
20
80.729026161397684
30
0
10
-21.547402386660181
20
71.679200474668463
30
0
10
-27.979254770370666
20
62.896218501200927
30
0
10
-33.717713249806664
20
54.399323439638358
30
0
10
-36.306363151695365
20
50.266639943998221
30
0
10
-38.694961139706187
20
46.216495729285768
30
0
10
-40.873095942804753
20
42.253186374622167
30
0
10
-42.830380963215504
20
38.380997279205914
30
0
10
-44.557026707569449
20
34.603967483341016
30
0
10
-46.044501547146226
20
30.925617045825366
30
0
10
-47.286382039184261
20
27.348596210468962
30
0
10
-48.27934419205009
20
23.874276420682634
30
0
10
-49.023518488533682
20
20.502603840661923
30
0
10
-49.521764233697411
20
17.232398751706647
30
0
0
LWPOLYLINE
5
120
100
AcDbEntity
8
INTERIOR_PROFILES
100
AcDbPolyline
90
8
70
1
43
0.0
10
33.223956768582795
20
5.0000000000000071
10
7.2239567685827843
20
5.0000000000000089
42
-0.41421356237309825
10
5.2239567685827755
20
7.0000000000000213
10
5.2239567685828092
20
13.000000000000016
42
-0.41421356237309392
10
7.2239567685828119
20
15.000000000000011
10
33.223956768582816
20
15.000000000000007
42
-0.41421356237309664
10
35.223956768582816
20
12.999999999999993
10
35.223956768582795
20
7
42
-0.41421356237309437
0
CIRCLE
5
121
100
AcDbEntity
8
INTERIOR_PROFILES
100
AcDbCircle
10
24.106492539696305
20
52.257809571143383
30
0
40
2.75
210
0
220
0
230
-1
0
CIRCLE
5
122
100
AcDbEntity
8
INTERIOR_PROFILES
100
AcDbCircle
10
6.3642853887412532
20
53.706689985199382
30
0
40
4.8000000000000025
210
0
220
0
230
-1
0
CIRCLE
5
123
100
AcDbEntity
8
INTERIOR_PROFILES
100
AcDbCircle
10
35.827381347721882
20
30.17567277349854
30
0
40
2.75
210
0
220
0
230
-1
0
ENDSEC
0
SECTION
2
OBJECTS
0
DICTIONARY
5
C
100
AcDbDictionary
3
ACAD_GROUP
350
D
3
ACAD_MLINESTYLE
350
17
0
DICTIONARY
5
D
100
AcDbDictionary
0
DICTIONARY
5
1A
330
C
100
AcDbDictionary
0
DICTIONARY
5
17
100
AcDbDictionary
0
ENDSEC
0
EOF
