0
SECTION
2
HEADER
9
$INSUNITS
70
4
9
$ACADVER
1
AC1014
9
$HANDSEED
5
FFFF
0
ENDSEC
0
SECTION
2
TABLES
0
TABLE
2
VPORT
5
8
100
AcDbSymbolTable
0
ENDTAB
0
TABLE
2
LTYPE
5
5
100
AcDbSymbolTable
0
LTYPE
5
14
100
AcDbSymbolTableRecord
100
AcDbLinetypeTableRecord
2
BYBLOCK
70
0
0
LTYPE
5
15
100
AcDbSymbolTableRecord
100
AcDbLinetypeTableRecord
2
BYLAYER
70
0
0
ENDTAB
0
TABLE
2
LAYER
5
2
100
AcDbSymbolTable
70
2
0
LAYER
5
50
100
AcDbSymbolTableRecord
100
AcDbLayerTableRecord
2
0
70
0
6
CONTINUOUS
0
ENDTAB
0
TABLE
2
STYLE
5
3
100
AcDbSymbolTable
70
1
0
STYLE
5
11
100
AcDbSymbolTableRecord
100
AcDbTextStyleTableRecord
2
STANDARD
70
0
0
ENDTAB
0
TABLE
2
VIEW
5
6
100
AcDbSymbolTable
70
0
0
ENDTAB
0
TABLE
2
UCS
5
7
100
AcDbSymbolTable
70
0
0
ENDTAB
0
TABLE
2
APPID
5
9
100
AcDbSymbolTable
70
2
0
APPID
5
12
100
AcDbSymbolTableRecord
100
AcDbRegAppTableRecord
2
ACAD
70
0
0
ENDTAB
0
TABLE
2
DIMSTYLE
5
A
100
AcDbSymbolTable
70
1
0
ENDTAB
0
TABLE
2
BLOCK_RECORD
5
1
100
AcDbSymbolTable
70
1
0
BLOCK_RECORD
5
1F
100
AcDbSymbolTableRecord
100
AcDbBlockTableRecord
2
*MODEL_SPACE
0
BLOCK_RECORD
5
1B
100
AcDbSymbolTableRecord
100
AcDbBlockTableRecord
2
*PAPER_SPACE
0
ENDTAB
0
ENDSEC
0
SECTION
2
BLOCKS
0
BLOCK
5
20
100
AcDbEntity
100
AcDbBlockBegin
2
*MODEL_SPACE
0
ENDBLK
5
21
100
AcDbEntity
100
AcDbBlockEnd
0
BLOCK
5
1C
100
AcDbEntity
100
AcDbBlockBegin
2
*PAPER_SPACE
0
ENDBLK
5
1D
100
AcDbEntity
100
AcDbBlockEnd
0
ENDSEC
0
SECTION
2
ENTITIES
0
ARC
5
100
100
AcDbEntity
8
0
100
AcDbCircle
10
74.628477881801615
20
-26.609387480736785
30
0
40
1.9999999999999987
210
0
220
0
230
1
100
AcDbArc
50
-88.792866178609827
51
1.2071338213901646
0
LINE
5
101
100
AcDbEntity
8
0
100
AcDbLine
10
76.628034018226558
20
-26.567253678565976
30
0
11
76.290963600860053
21
-10.57080458716645
31
0
0
ARC
5
102
100
AcDbEntity
8
0
100
AcDbCircle
10
74.29140746443511
20
-10.612938389337272
30
0
40
2.0000000000000036
210
0
220
-0
230
1
100
AcDbArc
50
1.2071338213901646
51
91.207133821390158
0
LINE
5
103
100
AcDbEntity
8
0
100
AcDbLine
10
74.249273662264301
20
-8.6133822529123201
30
0
11
43.156927216210683
21
-9.2685470418972908
31
0
0
SPLINE
5
104
100
AcDbEntity
8
0
100
AcDbSpline
70
0
71
3
72
16
73
12
74
0
42
0.000000001
43
0.0000000001
44
0.0000000001
40
0
40
0
40
0
40
0
40
0.19532223669346363
40
0.19532223669346363
40
0.39064447338692715
40
0.39064447338692715
40
0.58596671008039103
40
0.58596671008039103
40
0.70545933678137196
40
0.70545933678137196
40
0.824951963482353
40
0.824951963482353
40
0.824951963482353
40
0.824951963482353
10
38.058825654630425
20
-4.0008126512616018
30
0
10
38.023818173907486
20
-4.6509449370597942
30
0
10
38.11613067598956
20
-5.30169934329209
30
0
10
38.545003657890703
20
-6.5311943682394125
30
0
10
38.877463878248967
20
-7.0981803443893812
30
0
10
39.741005399984914
20
-8.0728013431437535
30
0
10
40.263830773748303
20
-8.4711184577905811
30
0
10
41.205833536206818
20
-8.9335416623567134
30
0
10
41.583080413602708
20
-9.0657094004903396
30
0
10
42.360906588271739
20
-9.2377149276488097
30
0
10
42.758706857914881
20
-9.2769381730544573
30
0
10
43.156927216210683
20
-9.2685470418973068
30
0
0
SPLINE
5
105
100
AcDbEntity
8
0
100
AcDbSpline
70
4
71
5
72
15
73
9
74
0
42
0.000000001
43
0.0000000001
44
0.0000000001
40
0
40
0
40
0
40
0
40
0
40
0
40
0.040000000000000001
40
0.080000000000000002
40
0.12
40
0.12922412558387159
40
0.12922412558387159
40
0.12922412558387159
40
0.12922412558387159
40
0.12922412558387159
40
0.12922412558387159
41
1
41
1
41
1
41
1
41
1
41
1
41
1
41
1
41
1
10
40.456552945848109
20
4.4194819379671593
30
0
10
40.180620944537246
20
3.8799814412808886
30
0
10
39.66877632070225
20
2.8068701991198015
30
0
10
39.021072409668939
20
1.2148752275661319
30
0
10
38.517990940297366
20
-0.47089123313422604
30
0
10
38.219133738083436
20
-2.1281482978948403
30
0
10
38.103341746572113
20
-3.2615231710344164
30
0
10
38.06510420235432
20
-3.8842122418937217
30
0
10
38.058825654630418
20
-4.0008126512616009
30
0
0
LINE
5
106
100
AcDbEntity
8
0
100
AcDbLine
10
40.456552945848109
20
4.4194819379671593
30
0
11
54.806315932922132
21
31.120752755641085
31
0
0
ARC
5
107
100
AcDbEntity
8
0
100
AcDbCircle
10
50.402044685925517
20
33.487690605031901
30
0
40
4.9999999999999964
210
-0
220
0
230
1
100
AcDbArc
50
-28.254416686603619
51
61.077705462321482
0
LINE
5
108
100
AcDbEntity
8
0
100
AcDbLine
10
52.820159692750657
20
37.864072651170801
30
0
11
26.666323132326532
21
52.315046996203179
31
0
0
SPLINE
5
109
100
AcDbEntity
8
0
100
AcDbSpline
70
0
71
3
72
14
73
10
74
0
42
0.000000001
43
0.0000000001
44
0.0000000001
40
0
40
0
40
0
40
0
40
0.19532223669346269
40
0.19532223669346269
40
0.39064447338692632
40
0.39064447338692632
40
0.55094043728669462
40
0.55094043728669462
40
0.71123640118646325
40
0.71123640118646325
40
0.71123640118646325
40
0.71123640118646325
10
20.288842524049905
20
50.992093192882926
30
0
10
20.68644414669679
20
51.507661289658031
30
0
10
21.180946394951455
20
51.940639836173318
30
0
10
22.308084045169217
20
52.592675700552377
30
0
10
22.929943396858757
20
52.805499200165713
30
0
10
24.104546548728226
20
52.965081077402438
30
0
10
24.642126286285297
20
52.951680630910552
30
0
10
25.692555039902494
20
52.755236316157188
30
0
10
26.198645546673546
20
52.573456380096204
30
0
10
26.666323132326532
20
52.315046996203179
30
0
0
SPLINE
5
110
100
AcDbEntity
8
0
100
AcDbSpline
70
4
71
5
72
21
73
15
74
0
42
0.000000001
43
0.0000000001
44
0.0000000001
40
0.032132181414730246
40
0.032132181414730246
40
0.032132181414730246
40
0.032132181414730246
40
0.032132181414730246
40
0.032132181414730246
40
0.10000000000000001
40
0.20000000000000001
40
0.30000000000000004
40
0.40000000000000002
40
0.5
40
0.59999999999999998
40
0.69999999999999996
40
0.79999999999999993
40
0.89999999999999991
40
0.90550240984644736
40
0.90550240984644736
40
0.90550240984644736
40
0.90550240984644736
40
0.90550240984644736
40
0.90550240984644736
41
1
41
1
41
1
41
1
41
1
41
1
41
1
41
1
41
1
41
1
41
1
41
1
41
1
41
1
41
1
10
20.288842524049883
20
50.992093192882933
30
0
10
19.190770047311506
20
49.568227935029299
30
0
10
16.519167699663512
20
46.065800505076346
30
0
10
12.43206321837614
20
40.5539423743123
30
0
10
7.2120005273468655
20
33.156256382970568
30
0
10
1.3058438635555483
20
24.068229618950703
30
0
10
-4.0570577540082011
20
14.771156122320104
30
0
10
-8.3512312265482329
20
5.941612885495009
30
0
10
-11.459954852326131
20
-2.3693385303815493
30
0
10
-13.306090246528665
20
-10.127952846634464
30
0
10
-13.798197161730013
20
-15.980523443152826
30
0
10
-13.62174445433193
20
-20.150423916729345
30
0
10
-13.264433548884888
20
-22.8510061611812
30
0
10
-13.018959703706493
20
-24.210313861702282
30
0
10
-13.005988553635628
20
-24.28113390882806
30
0
0
SPLINE
5
111
100
AcDbEntity
8
0
100
AcDbSpline
70
0
71
3
72
12
73
8
74
0
42
0.000000001
43
0.0000000001
44
0.0000000001
40
0
40
0
40
0
40
0
40
0.39064447338692826
40
0.39064447338692826
40
0.72853717277265551
40
0.72853717277265551
40
1.0664298721583827
40
1.0664298721583827
40
1.0664298721583827
40
1.0664298721583827
10
-6.3725180913748964
20
-31.95273256919798
30
0
10
-7.6060684153485543
20
-31.535667047727447
30
0
10
-8.7463631553868026
20
-30.881649091607958
30
0
10
-10.579351286046137
20
-29.288677311606982
30
0
10
-11.298586919594324
20
-28.411517795565029
30
0
10
-12.414436208396813
20
-26.454691742960108
30
0
10
-12.803073223373504
20
-25.389013562767598
30
0
10
-13.005988553635625
20
-24.281133908828053
30
0
0
SPLINE
5
112
100
AcDbEntity
8
0
100
AcDbSpline
70
4
71
5
72
22
73
16
74
0
42
0.000000001
43
0.0000000001
44
0.0000000001
40
0.52519363431421029
40
0.52519363431421029
40
0.52519363431421029
40
0.52519363431421029
40
0.52519363431421029
40
0.52519363431421029
40
0.55999999999999994
40
0.59999999999999998
40
0.64000000000000001
40
0.68000000000000005
40
0.72000000000000008
40
0.76000000000000012
40
0.80000000000000016
40
0.84000000000000019
40
0.88000000000000023
40
0.92000000000000026
40
0.95819346372593095
40
0.95819346372593095
40
0.95819346372593095
40
0.95819346372593095
40
0.95819346372593095
40
0.95819346372593095
41
1
41
1
41
1
41
1
41
1
41
1
41
1
41
1
41
1
41
1
41
1
41
1
41
1
41
1
41
1
41
1
10
33.01312086440619
20
-30.889417764528851
30
0
10
32.621167234536294
20
-31.284004883558815
30
0
10
31.749652428579171
20
-32.098823122003381
30
0
10
30.319769190969474
20
-33.233725003061181
30
0
10
28.215754762483463
20
-34.506144942001562
30
0
10
25.300777402676829
20
-35.660615022236662
30
0
10
22.051710715914204
20
-36.392883571751767
30
0
10
18.567312538338612
20
-36.711945822274316
30
0
10
14.864081113787828
20
-36.663609649034377
30
0
10
10.95566150982865
20
-36.28584199039225
30
0
10
6.8532226145722577
20
-35.60721139196567
30
0
10
2.6041767348874068
20
-34.657400148439102
30
0
10
-0.92726550565481081
20
-33.691557983844277
30
0
10
-3.6420674565929243
20
-32.85770480564382
30
0
10
-5.4712047166293596
20
-32.257468197198683
30
0
10
-6.3725180913748938
20
-31.952732569197956
30
0
0
SPLINE
5
113
100
AcDbEntity
8
0
100
AcDbSpline
70
0
71
3
72
10
73
6
74
0
42
0.000000001
43
0.0000000001
44
0.0000000001
40
0
40
0
40
0
40
0
40
0.19250661857731982
40
0.19250661857731982
40
0.38501323715463942
40
0.38501323715463942
40
0.38501323715463942
40
0.38501323715463942
10
36.455138026441773
20
-29.414203933498349
30
0
10
35.813591708977278
20
-29.427722326471198
30
0
10
35.180605336381802
20
-29.564617096392318
30
0
10
34.001003219150036
20
-30.070182663480907
30
0
10
33.465341564343902
20
-30.434158648256954
30
0
10
33.01312086440619
20
-30.889417764528851
30
0
0
LINE
5
114
100
AcDbEntity
8
0
100
AcDbLine
10
36.455138026441773
20
-29.414203933498349
30
0
11
74.670611683972425
21
-28.608943617161721
31
0
0
CIRCLE
5
115
100
AcDbEntity
8
0
100
AcDbCircle
10
11.253085378550542
20
22.324158874704594
30
0
40
2.7499999999999991
210
0
220
0
230
1
0
LWPOLYLINE
5
116
100
AcDbEntity
8
0
100
AcDbPolyline
90
4
70
1
43
0.0
10
12.996522661019119
20
-24.907404060850542
10
6.0095115612322036
20
-25.05463140700051
42
-0.5211437916137549
10
5.7988425503781249
20
-15.056850724875805
10
12.785853650165038
20
-14.909623378725845
42
-0.52114379161375401
0
CIRCLE
5
117
100
AcDbEntity
8
0
100
AcDbCircle
10
0
20
0
30
0
40
2.75
210
0
220
0
230
1
0
CIRCLE
5
118
100
AcDbEntity
8
0
100
AcDbCircle
10
28.960831549390349
20
24.146491059226364
30
0
40
4.7999999999999998
210
0
220
0
230
1
0
LWPOLYLINE
5
119
100
AcDbEntity
8
0
100
AcDbPolyline
90
8
70
1
43
0.0
10
71.397407765224742
20
-15.675029433655837
10
71.52380917173717
20
-21.67369784293065
42
-0.4142135623730937
10
69.566386837483051
20
-23.715387781526399
10
43.572157063958826
20
-24.263127209746997
42
-0.41421356237309698
10
41.53046712536306
20
-22.305704875492861
10
41.404065718850653
20
-16.307036466218044
42
-0.41421356237309309
10
43.361488053104779
20
-14.265346527622299
10
69.35571782662899
20
-13.717607099401704
42
-0.41421356237309631
0
ENDSEC
0
SECTION
2
OBJECTS
0
DICTIONARY
5
C
100
AcDbDictionary
3
ACAD_GROUP
350
D
3
ACAD_MLINESTYLE
350
17
0
DICTIONARY
5
D
100
AcDbDictionary
0
DICTIONARY
5
1A
330
C
100
AcDbDictionary
0
DICTIONARY
5
17
100
AcDbDictionary
0
ENDSEC
0
EOF
