0
SECTION
2
HEADER
9
$INSUNITS
70
4
9
$ACADVER
1
AC1014
9
$HANDSEED
5
FFFF
0
ENDSEC
0
SECTION
2
TABLES
0
TABLE
2
VPORT
5
8
100
AcDbSymbolTable
0
ENDTAB
0
TABLE
2
LTYPE
5
5
100
AcDbSymbolTable
0
LTYPE
5
14
100
AcDbSymbolTableRecord
100
AcDbLinetypeTableRecord
2
BYBLOCK
70
0
0
LTYPE
5
15
100
AcDbSymbolTableRecord
100
AcDbLinetypeTableRecord
2
BYLAYER
70
0
0
ENDTAB
0
TABLE
2
LAYER
5
2
100
AcDbSymbolTable
70
2
0
LAYER
5
50
100
AcDbSymbolTableRecord
100
AcDbLayerTableRecord
2
0
70
0
6
CONTINUOUS
0
ENDTAB
0
TABLE
2
STYLE
5
3
100
AcDbSymbolTable
70
1
0
STYLE
5
11
100
AcDbSymbolTableRecord
100
AcDbTextStyleTableRecord
2
STANDARD
70
0
0
ENDTAB
0
TABLE
2
VIEW
5
6
100
AcDbSymbolTable
70
0
0
ENDTAB
0
TABLE
2
UCS
5
7
100
AcDbSymbolTable
70
0
0
ENDTAB
0
TABLE
2
APPID
5
9
100
AcDbSymbolTable
70
2
0
APPID
5
12
100
AcDbSymbolTableRecord
100
AcDbRegAppTableRecord
2
ACAD
70
0
0
ENDTAB
0
TABLE
2
DIMSTYLE
5
A
100
AcDbSymbolTable
70
1
0
ENDTAB
0
TABLE
2
BLOCK_RECORD
5
1
100
AcDbSymbolTable
70
1
0
BLOCK_RECORD
5
1F
100
AcDbSymbolTableRecord
100
AcDbBlockTableRecord
2
*MODEL_SPACE
0
BLOCK_RECORD
5
1B
100
AcDbSymbolTableRecord
100
AcDbBlockTableRecord
2
*PAPER_SPACE
0
ENDTAB
0
ENDSEC
0
SECTION
2
BLOCKS
0
BLOCK
5
20
100
AcDbEntity
100
AcDbBlockBegin
2
*MODEL_SPACE
0
ENDBLK
5
21
100
AcDbEntity
100
AcDbBlockEnd
0
BLOCK
5
1C
100
AcDbEntity
100
AcDbBlockBegin
2
*PAPER_SPACE
0
ENDBLK
5
1D
100
AcDbEntity
100
AcDbBlockEnd
0
ENDSEC
0
SECTION
2
ENTITIES
0
CIRCLE
5
100
100
AcDbEntity
8
0
100
AcDbCircle
10
-11.253085378550542
20
22.324158874704594
30
0
40
2.7499999999999991
210
0
220
-0
230
1
0
SPLINE
5
101
100
AcDbEntity
8
0
100
AcDbSpline
70
4
71
5
72
21
73
15
74
0
42
0.000000001
43
0.0000000001
44
0.0000000001
40
-1
40
-1
40
-1
40
-1
40
-1
40
-1
40
-0.89999999999999991
40
-0.79999999999999993
40
-0.69999999999999996
40
-0.59999999999999998
40
-0.5
40
-0.40000000000000002
40
-0.30000000000000004
40
-0.20000000000000001
40
-0.10000000000000001
40
0
40
0
40
0
40
0
40
0
40
0
41
1
41
1
41
1
41
1
41
1
41
1
41
1
41
1
41
1
41
1
41
1
41
1
41
1
41
1
41
1
10
-16.254876479632756
20
-51.939139895431254
30
0
10
-16.155874629168938
20
-51.741181624397313
30
0
10
-15.966148760177807
20
-51.345090655350148
30
0
10
-15.706392691451541
20
-50.750430936877954
30
0
10
-15.410540405901809
20
-49.956487426421518
30
0
10
-15.130584581715368
20
-48.962164556222596
30
0
10
-14.948518951179675
20
-47.965778985204075
30
0
10
-14.872332098623662
20
-46.96716238129585
30
0
10
-14.906385148996753
20
-45.966222848721216
30
0
10
-15.046316977352514
20
-44.963052283271423
30
0
10
-15.284138999364906
20
-43.957819017030289
30
0
10
-15.546284243182358
20
-43.152117618367697
30
0
10
-15.780760030614223
20
-42.54704365502328
30
0
10
-15.953632378744675
20
-42.143312169536784
30
0
10
-16.044207468778708
20
-41.941359213306526
30
0
0
LINE
5
102
100
AcDbEntity
8
0
100
AcDbLine
10
-16.254876479632756
20
-51.939139895431254
30
0
11
-27.852302070898169
21
-51.694763842840487
31
0
0
SPLINE
5
103
100
AcDbEntity
8
0
100
AcDbSpline
70
4
71
5
72
21
73
15
74
0
42
0.000000001
43
0.0000000001
44
0.0000000001
40
0
40
0
40
0
40
0
40
0
40
0
40
0.10000000000000001
40
0.20000000000000001
40
0.30000000000000004
40
0.40000000000000002
40
0.5
40
0.59999999999999998
40
0.69999999999999996
40
0.79999999999999993
40
0.89999999999999991
40
1
40
1
40
1
40
1
40
1
40
1
41
1
41
1
41
1
41
1
41
1
41
1
41
1
41
1
41
1
41
1
41
1
41
1
41
1
41
1
41
1
10
-27.641633060044111
20
-41.696983160715803
30
0
10
-27.740634910507005
20
-41.894941431748123
30
0
10
-27.930360779496489
20
-42.291032400792915
30
0
10
-28.190116848220871
20
-42.885692119264192
30
0
10
-28.485969133769053
20
-43.679635629723307
30
0
10
-28.765924957955345
20
-44.673958499927487
30
0
10
-28.94799058849263
20
-45.670344070948296
30
0
10
-29.024177441052142
20
-46.668960674852791
30
0
10
-28.990124390683775
20
-47.669900207417172
30
0
10
-28.850192562332527
20
-48.673070772854281
30
0
10
-28.612370540322352
20
-49.678304039086655
30
0
10
-28.350225296503506
20
-50.48400543775184
30
0
10
-28.115749509068131
20
-51.089079401106339
30
0
10
-27.942877160934213
20
-51.492810886603742
30
0
10
-27.852302070898169
20
-51.694763842840487
30
0
0
LINE
5
104
100
AcDbEntity
8
0
100
AcDbLine
10
-27.641633060044111
20
-41.696983160715803
30
0
11
-16.044207468778708
21
-41.941359213306541
31
0
0
CIRCLE
5
105
100
AcDbEntity
8
0
100
AcDbCircle
10
-28.960831549390349
20
24.146491059226364
30
0
40
4.7999999999999998
210
0
220
-0
230
1
0
CIRCLE
5
106
100
AcDbEntity
8
0
100
AcDbCircle
10
0
20
0
30
0
40
2.75
210
0
220
-0
230
1
0
SPLINE
5
107
100
AcDbEntity
8
0
100
AcDbSpline
70
0
71
3
72
18
73
14
74
0
42
0.000000001
43
0.0000000001
44
0.0000000001
40
0
40
0
40
0
40
0
40
0.078128894677385791
40
0.078128894677385791
40
0.1562577893547715
40
0.1562577893547715
40
0.2343866840321569
40
0.2343866840321569
40
0.3125155787095425
40
0.3125155787095425
40
0.37782108392024172
40
0.37782108392024172
40
0.44312658913094161
40
0.44312658913094161
40
0.44312658913094161
40
0.44312658913094161
10
9.5338295385965424
20
-25.382154124189434
30
0
10
9.79420138990365
20
-25.387640569843036
30
0
10
10.051012319562078
20
-25.443930974455171
30
0
10
10.52860210125287
20
-25.651782865426938
30
0
10
10.744814934665728
20
-25.801357174420861
30
0
10
11.10773654250033
20
-26.174964340736967
30
0
10
11.250975588543618
20
-26.395425309917524
30
0
10
11.444885172103859
20
-26.8788438465496
30
0
10
11.493701828313093
20
-27.137179669307443
30
0
10
11.489903007182072
20
-27.615279243750955
30
0
10
11.452646000256774
20
-27.831222028611521
30
0
10
11.310022098212375
20
-28.24256797755644
30
0
10
11.20560720375652
20
-28.435225447471669
30
0
10
11.072216031228788
20
-28.6072532413848
30
0
0
LINE
5
108
100
AcDbEntity
8
0
100
AcDbLine
10
9.5338295385965424
20
-25.382154124189434
30
0
11
-12.996522661019119
21
-24.907404060850542
31
0
0
ARC
5
109
100
AcDbEntity
8
0
100
AcDbCircle
10
-9.3976826056986198
20
-19.982127392863177
30
0
40
6.0999999999999988
210
0
220
0
230
1
100
AcDbArc
50
123.74087989851532
51
233.84485245870394
0
LINE
5
110
100
AcDbEntity
8
0
100
AcDbLine
10
-12.785853650165038
20
-14.909623378725845
30
0
11
11.385628309947391
21
-15.41895463506342
31
0
0
SPLINE
5
111
100
AcDbEntity
8
0
100
AcDbSpline
70
0
71
3
72
16
73
12
74
0
42
0.000000001
43
0.0000000001
44
0.0000000001
40
0
40
0
40
0
40
0
40
0.078128894677385485
40
0.078128894677385485
40
0.1562577893547713
40
0.1562577893547713
40
0.23438668403215696
40
0.23438668403215696
40
0.28635976613202274
40
0.28635976613202274
40
0.33833284823188858
40
0.33833284823188858
40
0.33833284823188858
40
0.33833284823188858
10
13.418668993564102
20
-13.228899707536279
30
0
10
13.443474760207756
20
-13.488145297624559
30
0
10
13.417406941693153
20
-13.749757476395567
30
0
10
13.266458693023322
20
-14.248264281143017
30
0
10
13.143021410398532
20
-14.480392910358873
30
0
10
12.814116357575891
20
-14.884268973506638
30
0
10
12.61179309895013
20
-15.052155132145392
30
0
10
12.23078054563948
20
-15.259282935985365
30
0
10
12.068465836470923
20
-15.321900032137671
30
0
10
11.731781036232054
20
-15.40373361175493
30
0
10
11.558833468683565
20
-15.422604340995758
30
0
10
11.385628309947391
20
-15.41895463506342
30
0
0
SPLINE
5
112
100
AcDbEntity
8
0
100
AcDbSpline
70
4
71
5
72
19
73
13
74
0
42
0.000000001
43
0.0000000001
44
0.0000000001
40
0.032132181414730288
40
0.032132181414730288
40
0.032132181414730288
40
0.032132181414730288
40
0.032132181414730288
40
0.032132181414730288
40
0.10000000000000001
40
0.20000000000000001
40
0.30000000000000004
40
0.40000000000000002
40
0.5
40
0.59999999999999998
40
0.69999999999999996
40
0.74390302605926195
40
0.74390302605926195
40
0.74390302605926195
40
0.74390302605926195
40
0.74390302605926195
40
0.74390302605926195
41
1
41
1
41
1
41
1
41
1
41
1
41
1
41
1
41
1
41
1
41
1
41
1
41
1
10
-20.288842524049883
20
50.992093192882933
30
0
10
-19.190770047311506
20
49.568227935029299
30
0
10
-16.519167699663509
20
46.065800505076368
30
0
10
-12.43206321837614
20
40.553942374312307
30
0
10
-7.2120005273468646
20
33.156256382970568
30
0
10
-1.3058438635555483
20
24.068229618950703
30
0
10
4.0570577540082011
20
14.771156122320104
30
0
10
8.3512312265482329
20
5.941612885495009
30
0
10
11.111174875877694
20
-1.4369000803832161
30
0
10
12.502746723084337
20
-6.8266001763398441
30
0
10
13.119749109705207
20
-10.487254644673431
30
0
10
13.357717670905826
20
-12.591896149605626
30
0
10
13.418668993564101
20
-13.228899707536279
30
0
0
SPLINE
5
113
100
AcDbEntity
8
0
100
AcDbSpline
70
0
71
3
72
14
73
10
74
0
42
0.000000001
43
0.0000000001
44
0.0000000001
40
0
40
0
40
0
40
0
40
0.19532223669346377
40
0.19532223669346377
40
0.39064447338692798
40
0.39064447338692798
40
0.55094043728669628
40
0.55094043728669628
40
0.7112364011864647
40
0.7112364011864647
40
0.7112364011864647
40
0.7112364011864647
10
-26.666323132326522
20
52.315046996203179
30
0
10
-26.096453312408542
20
52.629921417346594
30
0
10
-25.470529782356735
20
52.830477219553586
30
0
10
-24.177038019244897
20
52.980374216644329
30
0
10
-23.521836272447693
20
52.928282314535728
30
0
10
-22.380677106665424
20
52.60747910651682
30
0
10
-21.892785040390997
20
52.38135330554627
30
0
10
-21.007169443467419
20
51.783293149951191
30
0
10
-20.615144006304146
20
51.415206743227102
30
0
10
-20.288842524049883
20
50.992093192882933
30
0
0
LINE
5
114
100
AcDbEntity
8
0
100
AcDbLine
10
-26.666323132326522
20
52.315046996203179
30
0
11
-52.820159692750657
21
37.864072651170808
31
0
0
ARC
5
115
100
AcDbEntity
8
0
100
AcDbCircle
10
-50.402044685925524
20
33.487690605031901
30
0
40
4.9999999999999902
210
0
220
0
230
1
100
AcDbArc
50
118.92229453767841
51
208.25441668660358
0
LINE
5
116
100
AcDbEntity
8
0
100
AcDbLine
10
-54.806315932922146
20
31.120752755641089
30
0
11
-40.456552945848109
21
4.4194819379671602
31
0
0
SPLINE
5
117
100
AcDbEntity
8
0
100
AcDbSpline
70
4
71
5
72
24
73
18
74
0
42
0.000000001
43
0.0000000001
44
0.0000000001
40
0
40
0
40
0
40
0
40
0
40
0
40
0.040000000000000001
40
0.080000000000000002
40
0.12
40
0.16
40
0.20000000000000001
40
0.24000000000000002
40
0.28000000000000003
40
0.32000000000000001
40
0.35999999999999999
40
0.39999999999999997
40
0.43999999999999995
40
0.47999999999999993
40
0.49298870186637056
40
0.49298870186637056
40
0.49298870186637056
40
0.49298870186637056
40
0.49298870186637056
40
0.49298870186637056
41
1
41
1
41
1
41
1
41
1
41
1
41
1
41
1
41
1
41
1
41
1
41
1
41
1
41
1
41
1
41
1
41
1
41
1
10
-40.456552945848109
20
4.4194819379671593
30
0
10
-40.180620944537246
20
3.8799814412808886
30
0
10
-39.66877632070225
20
2.8068701991198015
30
0
10
-39.021072409668939
20
1.2148752275661319
30
0
10
-38.398177615560165
20
-0.87237150359473459
30
0
10
-38.010913432283637
20
-3.4267974533752388
30
0
10
-37.978220966137137
20
-5.9411665431516036
30
0
10
-38.222719458446043
20
-8.4447069236841958
30
0
10
-38.606563705312638
20
-10.98899025592897
30
0
10
-38.955244024781905
20
-13.631531115651942
30
0
10
-39.091996124495765
20
-16.412732050681711
30
0
10
-38.865403196414753
20
-19.337883399554951
30
0
10
-38.187445174241077
20
-22.349613086095346
30
0
10
-37.189545353082956
20
-24.933032145123736
30
0
10
-36.168840982802784
20
-26.830382826038239
30
0
10
-35.340234315061828
20
-28.085286655809423
30
0
10
-34.832667358321146
20
-28.772457421165527
30
0
10
-34.706153470390255
20
-28.939155485847124
30
0
0
SPLINE
5
118
100
AcDbEntity
8
0
100
AcDbSpline
70
0
71
3
72
10
73
6
74
0
42
0.000000001
43
0.0000000001
44
0.0000000001
40
0
40
0
40
0
40
0
40
0.16795783022611943
40
0.16795783022611943
40
0.33591566045223897
40
0.33591566045223897
40
0.33591566045223897
40
0.33591566045223897
10
-33.69010636040818
20
-32.067230436075548
30
0
10
-33.678311857088531
20
-31.507495252593461
30
0
10
-33.760612588104948
20
-30.949733583462027
30
0
10
-34.106524341563038
20
-29.884785038900041
30
0
10
-34.367691519426543
20
-29.385121957329147
30
0
10
-34.706153470390262
20
-28.939155485847124
30
0
0
LINE
5
119
100
AcDbEntity
8
0
100
AcDbLine
10
-33.69010636040818
20
-32.067230436075548
30
0
11
-34.100914997225729
21
-51.563095711056718
31
0
0
ARC
5
120
100
AcDbEntity
8
0
100
AcDbCircle
10
-29.10202465616338
20
-51.668430216483749
30
0
40
4.9999999999999991
210
0
220
0
230
1
100
AcDbArc
50
178.79286617860984
51
268.79286617860964
0
LINE
5
121
100
AcDbEntity
8
0
100
AcDbLine
10
-29.207359161590418
20
-56.667320557546091
30
0
11
-15.11048839979459
21
-56.964363862850334
31
0
0
ARC
5
122
100
AcDbEntity
8
0
100
AcDbCircle
10
-15.005153894367552
20
-51.965473521787985
30
0
40
4.9999999999999991
210
0
220
0
230
1
100
AcDbArc
50
268.79286617860964
51
358.79286617860953
0
LINE
5
123
100
AcDbEntity
8
0
100
AcDbLine
10
-10.006263553305207
20
-52.07080802721503
30
0
11
-9.7544101413411521
21
-40.11852721166786
31
0
0
SPLINE
5
124
100
AcDbEntity
8
0
100
AcDbSpline
70
0
71
3
72
14
73
10
74
0
42
0.000000001
43
0.0000000001
44
0.0000000001
40
0
40
0
40
0
40
0
40
0.19532223669346369
40
0.19532223669346369
40
0.39064447338692776
40
0.39064447338692776
40
0.53214482554164322
40
0.53214482554164322
40
0.67364517769635868
40
0.67364517769635868
40
0.67364517769635868
40
0.67364517769635868
10
-5.7774076743061986
20
-35.329401054987599
30
0
10
-6.4147390102601767
20
-35.462466005124242
30
0
10
-7.0199865675838282
20
-35.718743763864936
30
0
10
-8.0981789847239867
20
-36.448874685410154
30
0
10
-8.5608157373723657
20
-36.915747398652599
30
0
10
-9.1818521947279272
20
-37.851088637842054
30
0
10
-9.3858430288253398
20
-38.278976797373659
30
0
10
-9.6678604291289325
20
-39.179170328250791
30
0
10
-9.7444735615998326
20
-39.646964049239109
30
0
10
-9.754410141341145
20
-40.11852721166786
30
0
0
SPLINE
5
125
100
AcDbEntity
8
0
100
AcDbSpline
70
4
71
5
72
14
73
8
74
0
42
0.000000001
43
0.0000000001
44
0.0000000001
40
0.84976469608904281
40
0.84976469608904281
40
0.84976469608904281
40
0.84976469608904281
40
0.84976469608904281
40
0.84976469608904281
40
0.88000000000000023
40
0.92000000000000026
40
0.95819346372593117
40
0.95819346372593117
40
0.95819346372593117
40
0.95819346372593117
40
0.95819346372593117
40
0.95819346372593117
41
1
41
1
41
1
41
1
41
1
41
1
41
1
41
1
10
-5.7774076743065939
20
-35.329401054987677
30
0
10
-5.1364798895868082
20
-35.195585221835103
30
0
10
-3.6354250027382755
20
-34.866363116875718
30
0
10
-1.2747476180337589
20
-34.293180453563991
30
0
10
1.1515521553321728
20
-33.622668194076454
30
0
10
3.642067456592939
20
-32.85770480564382
30
0
10
5.4712047166293836
20
-32.257468197198683
30
0
10
6.3725180913749213
20
-31.952732569197948
30
0
0
SPLINE
5
126
100
AcDbEntity
8
0
100
AcDbSpline
70
0
71
3
72
10
73
6
74
0
42
0.000000001
43
0.0000000001
44
0.0000000001
40
0.47977781597031049
40
0.47977781597031049
40
0.47977781597031049
40
0.47977781597031049
40
0.72853717277265262
40
0.72853717277265262
40
1.0664298721583774
40
1.0664298721583774
40
1.0664298721583774
40
1.0664298721583774
10
11.072216031228791
20
-28.607253241384804
30
0
10
10.565502555003404
20
-29.260735775568119
30
0
10
9.9789646572444735
20
-29.849770375916286
30
0
10
8.4378929092824393
20
-31.05355811614238
30
0
10
7.439492481622473
20
-31.591986662187992
30
0
10
6.3725180913749195
20
-31.952732569197948
30
0
0
ENDSEC
0
SECTION
2
OBJECTS
0
DICTIONARY
5
C
100
AcDbDictionary
3
ACAD_GROUP
350
D
3
ACAD_MLINESTYLE
350
17
0
DICTIONARY
5
D
100
AcDbDictionary
0
DICTIONARY
5
1A
330
C
100
AcDbDictionary
0
DICTIONARY
5
17
100
AcDbDictionary
0
ENDSEC
0
EOF
