0
SECTION
2
HEADER
9
$INSUNITS
70
4
9
$ACADVER
1
AC1014
9
$HANDSEED
5
FFFF
0
ENDSEC
0
SECTION
2
TABLES
0
TABLE
2
VPORT
5
8
100
AcDbSymbolTable
0
ENDTAB
0
TABLE
2
LTYPE
5
5
100
AcDbSymbolTable
0
LTYPE
5
14
100
AcDbSymbolTableRecord
100
AcDbLinetypeTableRecord
2
BYBLOCK
70
0
0
LTYPE
5
15
100
AcDbSymbolTableRecord
100
AcDbLinetypeTableRecord
2
BYLAYER
70
0
0
ENDTAB
0
TABLE
2
LAYER
5
2
100
AcDbSymbolTable
70
2
0
LAYER
5
50
100
AcDbSymbolTableRecord
100
AcDbLayerTableRecord
2
0
70
0
6
CONTINUOUS
0
ENDTAB
0
TABLE
2
STYLE
5
3
100
AcDbSymbolTable
70
1
0
STYLE
5
11
100
AcDbSymbolTableRecord
100
AcDbTextStyleTableRecord
2
STANDARD
70
0
0
ENDTAB
0
TABLE
2
VIEW
5
6
100
AcDbSymbolTable
70
0
0
ENDTAB
0
TABLE
2
UCS
5
7
100
AcDbSymbolTable
70
0
0
ENDTAB
0
TABLE
2
APPID
5
9
100
AcDbSymbolTable
70
2
0
APPID
5
12
100
AcDbSymbolTableRecord
100
AcDbRegAppTableRecord
2
ACAD
70
0
0
ENDTAB
0
TABLE
2
DIMSTYLE
5
A
100
AcDbSymbolTable
70
1
0
ENDTAB
0
TABLE
2
BLOCK_RECORD
5
1
100
AcDbSymbolTable
70
1
0
BLOCK_RECORD
5
1F
100
AcDbSymbolTableRecord
100
AcDbBlockTableRecord
2
*MODEL_SPACE
0
BLOCK_RECORD
5
1B
100
AcDbSymbolTableRecord
100
AcDbBlockTableRecord
2
*PAPER_SPACE
0
ENDTAB
0
ENDSEC
0
SECTION
2
BLOCKS
0
BLOCK
5
20
100
AcDbEntity
100
AcDbBlockBegin
2
*MODEL_SPACE
0
ENDBLK
5
21
100
AcDbEntity
100
AcDbBlockEnd
0
BLOCK
5
1C
100
AcDbEntity
100
AcDbBlockBegin
2
*PAPER_SPACE
0
ENDBLK
5
1D
100
AcDbEntity
100
AcDbBlockEnd
0
ENDSEC
0
SECTION
2
ENTITIES
0
LINE
5
100
100
AcDbEntity
8
OUTER_PROFILES
100
AcDbLine
10
-42.016215358657156
20
36.274136377808553
30
0
11
-30.12508965170888
21
15.223694864665017
31
0
0
ARC
5
101
100
AcDbEntity
8
OUTER_PROFILES
100
AcDbCircle
10
36.197144424728393
20
15.80691937842532
30
0
40
6.0999999999999952
210
0
220
-0
230
-1
100
AcDbArc
50
185.48646321191177
51
295.59043577210036
0
LINE
5
102
100
AcDbEntity
8
OUTER_PROFILES
100
AcDbLine
10
-38.831949159024049
20
10.305301069951609
30
0
11
-49.915723445993862
21
29.926516766663013
31
0
0
LWPOLYLINE
5
103
100
AcDbEntity
8
OUTER_PROFILES
100
AcDbPolyline
90
5
10
-53.484818751389973
20
29.754889212211332
30
0
10
-52.787167807823934
20
30.592969239399331
30
0
10
-51.75399430708022
20
30.940489134957645
30
0
10
-50.69129145341801
20
30.694186667817199
30
0
10
-49.915723445993862
20
29.926516766663013
30
0
0
LWPOLYLINE
5
104
100
AcDbEntity
8
OUTER_PROFILES
100
AcDbPolyline
90
5
10
-54.20691984666297
20
24.031431981926712
30
0
10
-54.34404398329076
20
25.487076713440928
30
0
10
-54.267768826845987
20
26.94462144552897
30
0
10
-53.979044611959857
20
28.379468486545335
30
0
10
-53.484818751389973
20
29.754889212211332
30
0
0
LWPOLYLINE
5
105
100
AcDbEntity
8
OUTER_PROFILES
100
AcDbPolyline
90
3
10
-54.20691984666297
20
24.031431981926712
30
0
10
-52.952885514453179
20
17.624329377790367
30
0
10
-51.429648798767587
20
11.730645352567617
30
0
0
LWPOLYLINE
5
106
100
AcDbEntity
8
OUTER_PROFILES
100
AcDbPolyline
90
5
10
-53.765507391519861
20
5.9603730364578533
30
0
10
-52.46875948730527
20
7.0133670078250248
30
0
10
-51.591038711630418
20
8.4352042618510445
30
0
10
-51.230706684119347
20
10.06887995321053
30
0
10
-51.429648798767587
20
11.730645352567617
30
0
0
LINE
5
107
100
AcDbEntity
8
OUTER_PROFILES
100
AcDbLine
10
-53.765507391519861
20
5.9603730364578533
30
0
11
-64.174500463253423
21
0.080465718530364772
31
0
0
ARC
5
108
100
AcDbEntity
8
OUTER_PROFILES
100
AcDbCircle
10
61.715303565896718
20
-4.2729640351272282
30
0
40
5
210
-0
220
0
230
-1
100
AcDbArc
50
-29.461550507993792
51
60.538449492006158
0
LINE
5
109
100
AcDbEntity
8
OUTER_PROFILES
100
AcDbLine
10
-66.068733319554312
20
-6.7321609324839251
30
0
11
-59.133798069008428
21
-19.008832837798334
31
0
0
ARC
5
110
100
AcDbEntity
8
OUTER_PROFILES
100
AcDbCircle
10
54.780368315350842
20
-16.549635940441632
30
0
40
5.0000000000000018
210
0
220
-0
230
-1
100
AcDbArc
50
240.53844949200621
51
330.53844949200612
0
LINE
5
111
100
AcDbEntity
8
OUTER_PROFILES
100
AcDbLine
10
-52.321171417994144
20
-20.903065694099226
30
0
11
-35.342627347078263
21
-11.31210287547319
31
0
0
LWPOLYLINE
5
112
100
AcDbEntity
8
OUTER_PROFILES
100
AcDbPolyline
90
3
10
-32.106265162453816
20
-10.726300490805443
30
0
10
-33.773991336357192
20
-10.745481683541414
30
0
10
-35.342627347078263
20
-11.31210287547319
30
0
0
LWPOLYLINE
5
113
100
AcDbEntity
8
OUTER_PROFILES
100
AcDbPolyline
90
14
10
-32.106265162453816
20
-10.726300490805443
30
0
10
-29.633561750158179
20
-10.96271626094337
30
0
10
-27.160097427828852
20
-10.906858022620526
30
0
10
-24.7467528976842
20
-10.574263386123386
30
0
10
-22.447896326714844
20
-9.9887241956130666
30
0
10
-20.303152008215907
20
-9.1830505787491052
30
0
10
-18.328769983916263
20
-8.2000315478254038
30
0
10
-14.819934922829995
20
-5.9184249540416145
30
0
10
-11.590177922611808
20
-3.6150619623967444
30
0
10
-8.2076108965988528
20
-1.7162372554411505
30
0
10
-6.3598857333344325
20
-1.0065974875468344
30
0
10
-4.3807914169853106
20
-0.48010983051336809
30
0
10
-2.2617945469730225
20
-0.14383992189790976
30
0
10
1.1183075570600048e-15
20
3.0031722510131639e-16
30
0
0
LINE
5
114
100
AcDbEntity
8
OUTER_PROFILES
100
AcDbLine
10
1.1183075570600048e-15
20
3.0031722510131639e-16
30
0
11
30.31292729288884
21
4.4408920985006262e-15
31
0
0
ARC
5
115
100
AcDbEntity
8
OUTER_PROFILES
100
AcDbCircle
10
-30.31292729288884
20
5.0000000000000036
30
0
40
5
210
0
220
-0
230
-1
100
AcDbArc
50
180.66787785107491
51
270
0
LINE
5
116
100
AcDbEntity
8
OUTER_PROFILES
100
AcDbLine
10
35.312587601992085
20
4.9417179823819133
30
0
11
35.660888629444699
21
34.820347682293473
31
0
0
LWPOLYLINE
5
117
100
AcDbEntity
8
OUTER_PROFILES
100
AcDbPolyline
90
5
10
31.476539102933856
20
39.811708690540911
30
0
10
33.137874269589915
20
39.222156388879171
30
0
10
34.491508070366329
20
38.092498501524467
30
0
10
35.369543713869625
20
36.561414822228961
30
0
10
35.660888629444699
20
34.820347682293473
30
0
0
LWPOLYLINE
5
118
100
AcDbEntity
8
OUTER_PROFILES
100
AcDbPolyline
90
14
10
31.476539102933856
20
39.811708690540911
30
0
10
20.115445736393273
20
41.523891015941317
30
0
10
9.3047884413114819
20
42.804198119878833
30
0
10
-0.91573857127889735
20
43.621485702267869
30
0
10
-5.7872079911662695
20
43.842770317157793
30
0
10
-10.488418209582683
20
43.930468609930756
30
0
10
-15.010508453052001
20
43.877628368137351
30
0
10
-19.344638946894094
20
43.677313855101019
30
0
10
-23.48247809711787
20
43.32298805555741
30
0
10
-27.41676484700654
20
42.808953903777706
30
0
10
-31.142032364406841
20
42.130922092665024
30
0
10
-34.655451682826339
20
41.286672999279915
30
0
10
-37.957133852918062
20
40.27629375458578
30
0
10
-41.049512358007689
20
39.101693683215807
30
0
0
LWPOLYLINE
5
119
100
AcDbEntity
8
OUTER_PROFILES
100
AcDbPolyline
90
5
10
-42.016215358657156
20
36.274136377808553
30
0
10
-42.26628679301362
20
37.073008900663865
30
0
10
-42.167517807428396
20
37.904176668246905
30
0
10
-41.737191662223253
20
38.62219685860957
30
0
10
-41.049512358007689
20
39.101693683215807
30
0
0
CIRCLE
5
120
100
AcDbEntity
8
INTERIOR_PROFILES
100
AcDbCircle
10
23.044548729884127
20
33.544198763664411
30
0
40
2.7500000000000027
210
0
220
0
230
-1
0
CIRCLE
5
121
100
AcDbEntity
8
INTERIOR_PROFILES
100
AcDbCircle
10
-11.934688196534911
20
19.464575950857782
30
0
40
4.7999999999999989
210
0
220
0
230
-1
0
LWPOLYLINE
5
122
100
AcDbEntity
8
INTERIOR_PROFILES
100
AcDbPolyline
90
5
10
-46.688308032374636
20
-10.54288470731418
30
0
10
-48.412473634030128
20
-12.573615217206973
30
0
10
-50.42693856169344
20
-14.090439043084604
30
0
10
-52.765903387740316
20
-15.032812114633582
30
0
10
-55.395167539689822
20
-15.461278502027557
30
0
0
LINE
5
123
100
AcDbEntity
8
INTERIOR_PROFILES
100
AcDbLine
10
-55.395167539689822
20
-15.461278502027557
30
0
11
-61.100504341557752
21
-5.3613214735412962
31
0
0
LWPOLYLINE
5
124
100
AcDbEntity
8
INTERIOR_PROFILES
100
AcDbPolyline
90
5
10
-61.100504341557752
20
-5.3613214735412962
30
0
10
-59.37633873990535
20
-3.3305909636435089
30
0
10
-57.361873812239324
20
-1.8137671377701992
30
0
10
-55.022908986166087
20
-0.87139406621801985
30
0
10
-52.393644834242536
20
-0.44292767882791007
30
0
0
LINE
5
125
100
AcDbEntity
8
INTERIOR_PROFILES
100
AcDbLine
10
-52.393644834242536
20
-0.44292767882791007
30
0
11
-46.688308032374636
21
-10.54288470731418
31
0
0
CIRCLE
5
126
100
AcDbEntity
8
INTERIOR_PROFILES
100
AcDbCircle
10
-1.9468522201485783
20
34.199850008385141
30
0
40
2.7499999999999969
210
0
220
0
230
-1
0
ENDSEC
0
SECTION
2
OBJECTS
0
DICTIONARY
5
C
100
AcDbDictionary
3
ACAD_GROUP
350
D
3
ACAD_MLINESTYLE
350
17
0
DICTIONARY
5
D
100
AcDbDictionary
0
DICTIONARY
5
1A
330
C
100
AcDbDictionary
0
DICTIONARY
5
17
100
AcDbDictionary
0
ENDSEC
0
EOF
