0
SECTION
2
HEADER
9
$INSUNITS
70
4
9
$ACADVER
1
AC1014
9
$HANDSEED
5
FFFF
0
ENDSEC
0
SECTION
2
TABLES
0
TABLE
2
VPORT
5
8
100
AcDbSymbolTable
0
ENDTAB
0
TABLE
2
LTYPE
5
5
100
AcDbSymbolTable
0
LTYPE
5
14
100
AcDbSymbolTableRecord
100
AcDbLinetypeTableRecord
2
BYBLOCK
70
0
0
LTYPE
5
15
100
AcDbSymbolTableRecord
100
AcDbLinetypeTableRecord
2
BYLAYER
70
0
0
ENDTAB
0
TABLE
2
LAYER
5
2
100
AcDbSymbolTable
70
2
0
LAYER
5
50
100
AcDbSymbolTableRecord
100
AcDbLayerTableRecord
2
0
70
0
6
CONTINUOUS
0
ENDTAB
0
TABLE
2
STYLE
5
3
100
AcDbSymbolTable
70
1
0
STYLE
5
11
100
AcDbSymbolTableRecord
100
AcDbTextStyleTableRecord
2
STANDARD
70
0
0
ENDTAB
0
TABLE
2
VIEW
5
6
100
AcDbSymbolTable
70
0
0
ENDTAB
0
TABLE
2
UCS
5
7
100
AcDbSymbolTable
70
0
0
ENDTAB
0
TABLE
2
APPID
5
9
100
AcDbSymbolTable
70
2
0
APPID
5
12
100
AcDbSymbolTableRecord
100
AcDbRegAppTableRecord
2
ACAD
70
0
0
ENDTAB
0
TABLE
2
DIMSTYLE
5
A
100
AcDbSymbolTable
70
1
0
ENDTAB
0
TABLE
2
BLOCK_RECORD
5
1
100
AcDbSymbolTable
70
1
0
BLOCK_RECORD
5
1F
100
AcDbSymbolTableRecord
100
AcDbBlockTableRecord
2
*MODEL_SPACE
0
BLOCK_RECORD
5
1B
100
AcDbSymbolTableRecord
100
AcDbBlockTableRecord
2
*PAPER_SPACE
0
ENDTAB
0
ENDSEC
0
SECTION
2
BLOCKS
0
BLOCK
5
20
100
AcDbEntity
100
AcDbBlockBegin
2
*MODEL_SPACE
0
ENDBLK
5
21
100
AcDbEntity
100
AcDbBlockEnd
0
BLOCK
5
1C
100
AcDbEntity
100
AcDbBlockBegin
2
*PAPER_SPACE
0
ENDBLK
5
1D
100
AcDbEntity
100
AcDbBlockEnd
0
ENDSEC
0
SECTION
2
ENTITIES
0
SPLINE
5
100
100
AcDbEntity
8
0
100
AcDbSpline
70
0
71
3
72
12
73
8
74
0
42
0.000000001
43
0.0000000001
44
0.0000000001
40
0
40
0
40
0
40
0
40
0.39064447338692171
40
0.39064447338692171
40
0.72853717277264751
40
0.72853717277264751
40
1.066429872158376
40
1.066429872158376
40
1.066429872158376
40
1.066429872158376
10
-6.3725180913749337
20
-31.952732569197938
30
0
10
-7.6060684153485703
20
-31.535667047727408
30
0
10
-8.7463631553868009
20
-30.881649091607919
30
0
10
-10.579351286046116
20
-29.288677311606953
30
0
10
-11.2985869195943
20
-28.411517795565008
30
0
10
-12.414436208396788
20
-26.454691742960087
30
0
10
-12.803073223373502
20
-25.389013562767584
30
0
10
-13.005988553635623
20
-24.281133908828032
30
0
0
SPLINE
5
101
100
AcDbEntity
8
0
100
AcDbSpline
70
4
71
5
72
35
73
29
74
0
42
0.000000001
43
0.0000000001
44
0.0000000001
40
-0.95819346372593084
40
-0.95819346372593084
40
-0.95819346372593084
40
-0.95819346372593084
40
-0.95819346372593084
40
-0.95819346372593084
40
-0.92000000000000026
40
-0.88000000000000023
40
-0.84000000000000019
40
-0.80000000000000016
40
-0.76000000000000012
40
-0.72000000000000008
40
-0.68000000000000005
40
-0.64000000000000001
40
-0.59999999999999998
40
-0.55999999999999994
40
-0.51999999999999991
40
-0.47999999999999993
40
-0.43999999999999995
40
-0.39999999999999997
40
-0.35999999999999999
40
-0.32000000000000001
40
-0.28000000000000003
40
-0.24000000000000002
40
-0.20000000000000001
40
-0.16
40
-0.12
40
-0.080000000000000002
40
-0.040000000000000001
40
0
40
0
40
0
40
0
40
0
40
0
41
1
41
1
41
1
41
1
41
1
41
1
41
1
41
1
41
1
41
1
41
1
41
1
41
1
41
1
41
1
41
1
41
1
41
1
41
1
41
1
41
1
41
1
41
1
41
1
41
1
41
1
41
1
41
1
41
1
10
-6.3725180913748787
20
-31.952732569197956
30
0
10
-5.4712047166293454
20
-32.257468197198683
30
0
10
-3.6420674565929168
20
-32.857704805643827
30
0
10
-0.92726550565480614
20
-33.691557983844277
30
0
10
2.604176734887409
20
-34.657400148439102
30
0
10
6.8532226145722577
20
-35.60721139196567
30
0
10
10.95566150982865
20
-36.28584199039225
30
0
10
14.864081113787828
20
-36.663609649034377
30
0
10
18.567312538338612
20
-36.711945822274316
30
0
10
22.051710715914204
20
-36.392883571751767
30
0
10
25.300777402676829
20
-35.660615022236662
30
0
10
28.293469504441422
20
-34.47536619715752
30
0
10
31.002515402514597
20
-32.816093470026516
30
0
10
33.393277717973916
20
-30.692914287989304
30
0
10
35.421256983131705
20
-28.162725156116686
30
0
10
37.033728416566376
20
-25.336419774805012
30
0
10
38.187445174241077
20
-22.349613086095346
30
0
10
38.865403196414753
20
-19.337883399554951
30
0
10
39.091996124495765
20
-16.412732050681711
30
0
10
38.955244024781905
20
-13.631531115651942
30
0
10
38.606563705312638
20
-10.98899025592897
30
0
10
38.222719458446043
20
-8.4447069236841958
30
0
10
37.978220966137137
20
-5.9411665431516036
30
0
10
38.010913432283637
20
-3.4267974533752388
30
0
10
38.398177615560165
20
-0.87237150359473459
30
0
10
39.021072409668939
20
1.2148752275661319
30
0
10
39.66877632070225
20
2.8068701991198015
30
0
10
40.180620944537246
20
3.8799814412808886
30
0
10
40.456552945848109
20
4.4194819379671593
30
0
0
LINE
5
102
100
AcDbEntity
8
0
100
AcDbLine
10
40.456552945848109
20
4.4194819379671593
30
0
11
54.806315932922146
21
31.120752755641089
31
0
0
ARC
5
103
100
AcDbEntity
8
0
100
AcDbCircle
10
50.402044685925489
20
33.487690605031879
30
0
40
5.0000000000000178
210
-0
220
0
230
1
100
AcDbArc
50
-28.254416686603161
51
61.077705462321354
0
LINE
5
104
100
AcDbEntity
8
0
100
AcDbLine
10
52.820159692750657
20
37.864072651170808
30
0
11
26.666323132326522
21
52.315046996203179
31
0
0
SPLINE
5
105
100
AcDbEntity
8
0
100
AcDbSpline
70
0
71
3
72
14
73
10
74
0
42
0.000000001
43
0.0000000001
44
0.0000000001
40
0
40
0
40
0
40
0
40
0.19532223669346555
40
0.19532223669346555
40
0.39064447338692898
40
0.39064447338692898
40
0.55094043728669817
40
0.55094043728669817
40
0.71123640118646636
40
0.71123640118646636
40
0.71123640118646636
40
0.71123640118646636
10
20.288842524049862
20
50.992093192882919
30
0
10
20.686444146696754
20
51.507661289658046
30
0
10
21.180946394951427
20
51.940639836173318
30
0
10
22.308084045169203
20
52.592675700552391
30
0
10
22.929943396858739
20
52.80549920016572
30
0
10
24.104546548728216
20
52.965081077402445
30
0
10
24.642126286285286
20
52.951680630910559
30
0
10
25.692555039902487
20
52.755236316157195
30
0
10
26.198645546673536
20
52.573456380096218
30
0
10
26.666323132326522
20
52.315046996203201
30
0
0
SPLINE
5
106
100
AcDbEntity
8
0
100
AcDbSpline
70
4
71
5
72
21
73
15
74
0
42
0.000000001
43
0.0000000001
44
0.0000000001
40
0.032132181414730267
40
0.032132181414730267
40
0.032132181414730267
40
0.032132181414730267
40
0.032132181414730267
40
0.032132181414730267
40
0.10000000000000001
40
0.20000000000000001
40
0.30000000000000004
40
0.40000000000000002
40
0.5
40
0.59999999999999998
40
0.69999999999999996
40
0.79999999999999993
40
0.89999999999999991
40
0.90550240984644725
40
0.90550240984644725
40
0.90550240984644725
40
0.90550240984644725
40
0.90550240984644725
40
0.90550240984644725
41
1
41
1
41
1
41
1
41
1
41
1
41
1
41
1
41
1
41
1
41
1
41
1
41
1
41
1
41
1
10
20.288842524049883
20
50.992093192882948
30
0
10
19.190770047311506
20
49.568227935029299
30
0
10
16.519167699663505
20
46.065800505076346
30
0
10
12.43206321837614
20
40.553942374312307
30
0
10
7.2120005273468646
20
33.156256382970568
30
0
10
1.3058438635555483
20
24.068229618950703
30
0
10
-4.0570577540082011
20
14.771156122320104
30
0
10
-8.3512312265482329
20
5.941612885495009
30
0
10
-11.459954852326131
20
-2.3693385303815493
30
0
10
-13.306090246528665
20
-10.127952846634464
30
0
10
-13.798197161730013
20
-15.980523443152823
30
0
10
-13.62174445433193
20
-20.150423916729338
30
0
10
-13.264433548884888
20
-22.8510061611812
30
0
10
-13.018959703706489
20
-24.210313861702275
30
0
10
-13.005988553635628
20
-24.281133908828046
30
0
0
CIRCLE
5
107
100
AcDbEntity
8
0
100
AcDbCircle
10
28.960831549390349
20
24.146491059226364
30
0
40
4.7999999999999998
210
0
220
0
230
1
0
CIRCLE
5
108
100
AcDbEntity
8
0
100
AcDbCircle
10
0
20
0
30
0
40
2.75
210
0
220
0
230
1
0
CIRCLE
5
109
100
AcDbEntity
8
0
100
AcDbCircle
10
9.3976826056986198
20
-19.982127392863177
30
0
40
6.0999999999999988
210
0
220
0
230
1
0
CIRCLE
5
110
100
AcDbEntity
8
0
100
AcDbCircle
10
11.253085378550542
20
22.324158874704594
30
0
40
2.7499999999999991
210
0
220
0
230
1
0
ENDSEC
0
SECTION
2
OBJECTS
0
DICTIONARY
5
C
100
AcDbDictionary
3
ACAD_GROUP
350
D
3
ACAD_MLINESTYLE
350
17
0
DICTIONARY
5
D
100
AcDbDictionary
0
DICTIONARY
5
1A
330
C
100
AcDbDictionary
0
DICTIONARY
5
17
100
AcDbDictionary
0
ENDSEC
0
EOF
