0
SECTION
2
HEADER
9
$INSUNITS
70
4
9
$ACADVER
1
AC1014
9
$HANDSEED
5
FFFF
0
ENDSEC
0
SECTION
2
TABLES
0
TABLE
2
VPORT
5
8
100
AcDbSymbolTable
0
ENDTAB
0
TABLE
2
LTYPE
5
5
100
AcDbSymbolTable
0
LTYPE
5
14
100
AcDbSymbolTableRecord
100
AcDbLinetypeTableRecord
2
BYBLOCK
70
0
0
LTYPE
5
15
100
AcDbSymbolTableRecord
100
AcDbLinetypeTableRecord
2
BYLAYER
70
0
0
ENDTAB
0
TABLE
2
LAYER
5
2
100
AcDbSymbolTable
70
2
0
LAYER
5
50
100
AcDbSymbolTableRecord
100
AcDbLayerTableRecord
2
0
70
0
6
CONTINUOUS
0
ENDTAB
0
TABLE
2
STYLE
5
3
100
AcDbSymbolTable
70
1
0
STYLE
5
11
100
AcDbSymbolTableRecord
100
AcDbTextStyleTableRecord
2
STANDARD
70
0
0
ENDTAB
0
TABLE
2
VIEW
5
6
100
AcDbSymbolTable
70
0
0
ENDTAB
0
TABLE
2
UCS
5
7
100
AcDbSymbolTable
70
0
0
ENDTAB
0
TABLE
2
APPID
5
9
100
AcDbSymbolTable
70
2
0
APPID
5
12
100
AcDbSymbolTableRecord
100
AcDbRegAppTableRecord
2
ACAD
70
0
0
ENDTAB
0
TABLE
2
DIMSTYLE
5
A
100
AcDbSymbolTable
70
1
0
ENDTAB
0
TABLE
2
BLOCK_RECORD
5
1
100
AcDbSymbolTable
70
1
0
BLOCK_RECORD
5
1F
100
AcDbSymbolTableRecord
100
AcDbBlockTableRecord
2
*MODEL_SPACE
0
BLOCK_RECORD
5
1B
100
AcDbSymbolTableRecord
100
AcDbBlockTableRecord
2
*PAPER_SPACE
0
ENDTAB
0
ENDSEC
0
SECTION
2
BLOCKS
0
BLOCK
5
20
100
AcDbEntity
100
AcDbBlockBegin
2
*MODEL_SPACE
0
ENDBLK
5
21
100
AcDbEntity
100
AcDbBlockEnd
0
BLOCK
5
1C
100
AcDbEntity
100
AcDbBlockBegin
2
*PAPER_SPACE
0
ENDBLK
5
1D
100
AcDbEntity
100
AcDbBlockEnd
0
ENDSEC
0
SECTION
2
ENTITIES
0
CIRCLE
5
100
100
AcDbEntity
8
0
100
AcDbCircle
10
-11.253085378550542
20
22.324158874704594
30
0
40
2.7499999999999991
210
0
220
-0
230
1
0
LWPOLYLINE
5
101
100
AcDbEntity
8
0
100
AcDbPolyline
90
8
70
1
43
0.0
10
-71.52380917173717
20
-21.67369784293065
10
-71.397407765224742
20
-15.675029433655837
42
-0.41421356237309631
10
-69.35571782662899
20
-13.717607099401707
10
-43.361488053104779
20
-14.265346527622295
42
-0.41421356237309309
10
-41.404065718850653
20
-16.307036466218044
10
-41.530467125363074
20
-22.305704875492861
42
-0.41421356237309698
10
-43.572157063958826
20
-24.263127209746994
10
-69.566386837483051
20
-23.715387781526402
42
-0.4142135623730937
0
CIRCLE
5
102
100
AcDbEntity
8
0
100
AcDbCircle
10
-28.960831549390349
20
24.146491059226364
30
0
40
4.7999999999999998
210
0
220
-0
230
1
0
CIRCLE
5
103
100
AcDbEntity
8
0
100
AcDbCircle
10
0
20
0
30
0
40
2.75
210
0
220
-0
230
1
0
SPLINE
5
104
100
AcDbEntity
8
0
100
AcDbSpline
70
0
71
3
72
16
73
12
74
0
42
0.000000001
43
0.0000000001
44
0.0000000001
40
0
40
0
40
0
40
0
40
0.078128894677385499
40
0.078128894677385499
40
0.15625778935477111
40
0.15625778935477111
40
0.23438668403215679
40
0.23438668403215679
40
0.28635976613202258
40
0.28635976613202258
40
0.33833284823188819
40
0.33833284823188819
40
0.33833284823188819
40
0.33833284823188819
10
13.418668993564101
20
-13.228899707536282
30
0
10
13.443474760207755
20
-13.488145297624561
30
0
10
13.417406941693152
20
-13.749757476395569
30
0
10
13.266458693023321
20
-14.248264281143017
30
0
10
13.14302141039853
20
-14.480392910358873
30
0
10
12.814116357575889
20
-14.884268973506638
30
0
10
12.611793098950129
20
-15.052155132145392
30
0
10
12.230780545639474
20
-15.259282935985365
30
0
10
12.068465836470921
20
-15.321900032137671
30
0
10
11.731781036232052
20
-15.40373361175493
30
0
10
11.558833468683563
20
-15.422604340995758
30
0
10
11.385628309947391
20
-15.41895463506342
30
0
0
SPLINE
5
105
100
AcDbEntity
8
0
100
AcDbSpline
70
4
71
5
72
19
73
13
74
0
42
0.000000001
43
0.0000000001
44
0.0000000001
40
-0.74390302605926195
40
-0.74390302605926195
40
-0.74390302605926195
40
-0.74390302605926195
40
-0.74390302605926195
40
-0.74390302605926195
40
-0.69999999999999996
40
-0.59999999999999998
40
-0.5
40
-0.40000000000000002
40
-0.30000000000000004
40
-0.20000000000000001
40
-0.10000000000000001
40
-0.032132181414730218
40
-0.032132181414730218
40
-0.032132181414730218
40
-0.032132181414730218
40
-0.032132181414730218
40
-0.032132181414730218
41
1
41
1
41
1
41
1
41
1
41
1
41
1
41
1
41
1
41
1
41
1
41
1
41
1
10
13.418668993564101
20
-13.228899707536279
30
0
10
13.357717670905826
20
-12.591896149605626
30
0
10
13.119749109705207
20
-10.487254644673431
30
0
10
12.502746723084337
20
-6.8266001763398441
30
0
10
11.111174875877694
20
-1.4369000803832161
30
0
10
8.3512312265482329
20
5.941612885495009
30
0
10
4.0570577540082011
20
14.771156122320104
30
0
10
-1.3058438635555483
20
24.068229618950703
30
0
10
-7.2120005273468655
20
33.156256382970568
30
0
10
-12.432063218376141
20
40.553942374312307
30
0
10
-16.519167699663512
20
46.065800505076375
30
0
10
-19.19077004731151
20
49.568227935029306
30
0
10
-20.288842524049883
20
50.992093192882948
30
0
0
SPLINE
5
106
100
AcDbEntity
8
0
100
AcDbSpline
70
0
71
3
72
14
73
10
74
0
42
0.000000001
43
0.0000000001
44
0.0000000001
40
0
40
0
40
0
40
0
40
0.19532223669346171
40
0.19532223669346171
40
0.39064447338692498
40
0.39064447338692498
40
0.55094043728669384
40
0.55094043728669384
40
0.71123640118646492
40
0.71123640118646492
40
0.71123640118646492
40
0.71123640118646492
10
-26.666323132326522
20
52.315046996203193
30
0
10
-26.096453312408549
20
52.629921417346601
30
0
10
-25.470529782356746
20
52.830477219553572
30
0
10
-24.177038019244911
20
52.980374216644321
30
0
10
-23.521836272447707
20
52.928282314535721
30
0
10
-22.380677106665448
20
52.607479106516813
30
0
10
-21.892785040391015
20
52.381353305546263
30
0
10
-21.007169443467429
20
51.783293149951184
30
0
10
-20.615144006304142
20
51.415206743227102
30
0
10
-20.288842524049873
20
50.992093192882926
30
0
0
LINE
5
107
100
AcDbEntity
8
0
100
AcDbLine
10
-26.666323132326522
20
52.315046996203193
30
0
11
-52.820159692750657
21
37.864072651170808
31
0
0
ARC
5
108
100
AcDbEntity
8
0
100
AcDbCircle
10
-50.402044685925517
20
33.487690605031887
30
0
40
5.0000000000000018
210
0
220
0
230
1
100
AcDbArc
50
118.92229453767841
51
208.25441668660352
0
LINE
5
109
100
AcDbEntity
8
0
100
AcDbLine
10
-54.806315932922132
20
31.120752755641085
30
0
11
-40.456552945848109
21
4.4194819379671602
31
0
0
SPLINE
5
110
100
AcDbEntity
8
0
100
AcDbSpline
70
4
71
5
72
15
73
9
74
0
42
0.000000001
43
0.0000000001
44
0.0000000001
40
0
40
0
40
0
40
0
40
0
40
0
40
0.040000000000000001
40
0.080000000000000002
40
0.12
40
0.12922412558387175
40
0.12922412558387175
40
0.12922412558387175
40
0.12922412558387175
40
0.12922412558387175
40
0.12922412558387175
41
1
41
1
41
1
41
1
41
1
41
1
41
1
41
1
41
1
10
-40.456552945848109
20
4.4194819379671593
30
0
10
-40.180620944537246
20
3.8799814412808886
30
0
10
-39.66877632070225
20
2.8068701991198015
30
0
10
-39.021072409668939
20
1.2148752275661319
30
0
10
-38.517990940297359
20
-0.47089123313422804
30
0
10
-38.219133738083436
20
-2.1281482978948452
30
0
10
-38.10334174657212
20
-3.2615231710344226
30
0
10
-38.065104202354327
20
-3.8842122418937306
30
0
10
-38.058825654630432
20
-4.0008126512616125
30
0
0
SPLINE
5
111
100
AcDbEntity
8
0
100
AcDbSpline
70
0
71
3
72
16
73
12
74
0
42
0.000000001
43
0.0000000001
44
0.0000000001
40
0
40
0
40
0
40
0
40
0.19532223669346474
40
0.19532223669346474
40
0.39064447338692837
40
0.39064447338692837
40
0.58596671008039181
40
0.58596671008039181
40
0.7054593367813724
40
0.7054593367813724
40
0.82495196348235444
40
0.82495196348235444
40
0.82495196348235444
40
0.82495196348235444
10
-43.15692721621069
20
-9.2685470418972908
30
0
10
-42.505997587942915
20
-9.2822631560312949
30
0
10
-41.858612139614053
20
-9.1687071057150291
30
0
10
-40.643808374142949
20
-8.6998341353144681
30
0
10
-40.08800424311783
20
-8.3489998963827325
30
0
10
-39.142160580321615
20
-7.4540307256716787
30
0
10
-38.76116382949148
20
-6.9184521869602458
30
0
10
-38.32981098800856
20
-5.9618231309801795
30
0
10
-38.210057708009884
20
-5.5804536651889869
30
0
10
-38.063595105675311
20
-4.7974158848164672
30
0
10
-38.03740906685946
20
-4.3985452179588549
30
0
10
-38.058825654630425
20
-4.0008126512616018
30
0
0
LINE
5
112
100
AcDbEntity
8
0
100
AcDbLine
10
-43.15692721621069
20
-9.2685470418972908
30
0
11
-74.249273662264301
21
-8.6133822529123236
31
0
0
ARC
5
113
100
AcDbEntity
8
0
100
AcDbCircle
10
-74.29140746443511
20
-10.612938389337259
30
0
40
1.9999999999999969
210
0
220
-0
230
1
100
AcDbArc
50
88.792866178609827
51
178.79286617860984
0
LINE
5
114
100
AcDbEntity
8
0
100
AcDbLine
10
-76.290963600860067
20
-10.57080458716645
30
0
11
-76.628034018226543
21
-26.567253678565976
31
0
0
ARC
5
115
100
AcDbEntity
8
0
100
AcDbCircle
10
-74.628477881801615
20
-26.609387480736785
30
0
40
1.9999999999999942
210
0
220
0
230
1
100
AcDbArc
50
178.79286617860984
51
268.79286617860987
0
LINE
5
116
100
AcDbEntity
8
0
100
AcDbLine
10
-74.670611683972425
20
-28.608943617161717
30
0
11
-36.455138026441773
21
-29.414203933498349
31
0
0
SPLINE
5
117
100
AcDbEntity
8
0
100
AcDbSpline
70
0
71
3
72
10
73
6
74
0
42
0.000000001
43
0.0000000001
44
0.0000000001
40
0
40
0
40
0
40
0
40
0.1925066185773196
40
0.1925066185773196
40
0.38501323715463942
40
0.38501323715463942
40
0.38501323715463942
40
0.38501323715463942
10
-33.01312086440619
20
-30.889417764528851
30
0
10
-33.465341564343902
20
-30.434158648256954
30
0
10
-34.001003219150036
20
-30.070182663480907
30
0
10
-35.180605336381802
20
-29.564617096392318
30
0
10
-35.813591708977278
20
-29.427722326471198
30
0
10
-36.455138026441773
20
-29.414203933498349
30
0
0
SPLINE
5
118
100
AcDbEntity
8
0
100
AcDbSpline
70
4
71
5
72
22
73
16
74
0
42
0.000000001
43
0.0000000001
44
0.0000000001
40
0.52519363431421029
40
0.52519363431421029
40
0.52519363431421029
40
0.52519363431421029
40
0.52519363431421029
40
0.52519363431421029
40
0.55999999999999994
40
0.59999999999999998
40
0.64000000000000001
40
0.68000000000000005
40
0.72000000000000008
40
0.76000000000000012
40
0.80000000000000016
40
0.84000000000000019
40
0.88000000000000023
40
0.92000000000000026
40
0.95819346372593084
40
0.95819346372593084
40
0.95819346372593084
40
0.95819346372593084
40
0.95819346372593084
40
0.95819346372593084
41
1
41
1
41
1
41
1
41
1
41
1
41
1
41
1
41
1
41
1
41
1
41
1
41
1
41
1
41
1
41
1
10
-33.01312086440619
20
-30.889417764528851
30
0
10
-32.621167234536294
20
-31.284004883558815
30
0
10
-31.749652428579171
20
-32.098823122003381
30
0
10
-30.319769190969474
20
-33.233725003061181
30
0
10
-28.215754762483463
20
-34.506144942001562
30
0
10
-25.300777402676829
20
-35.660615022236662
30
0
10
-22.051710715914204
20
-36.392883571751767
30
0
10
-18.567312538338612
20
-36.711945822274316
30
0
10
-14.864081113787828
20
-36.663609649034377
30
0
10
-10.95566150982865
20
-36.28584199039225
30
0
10
-6.8532226145722577
20
-35.60721139196567
30
0
10
-2.604176734887409
20
-34.657400148439102
30
0
10
0.92726550565480614
20
-33.691557983844277
30
0
10
3.6420674565929168
20
-32.857704805643827
30
0
10
5.4712047166293454
20
-32.257468197198683
30
0
10
6.3725180913748787
20
-31.952732569197956
30
0
0
SPLINE
5
119
100
AcDbEntity
8
0
100
AcDbSpline
70
0
71
3
72
10
73
6
74
0
42
0.000000001
43
0.0000000001
44
0.0000000001
40
0.4797778159703121
40
0.4797778159703121
40
0.4797778159703121
40
0.4797778159703121
40
0.72853717277265817
40
0.72853717277265817
40
1.0664298721583783
40
1.0664298721583783
40
1.0664298721583783
40
1.0664298721583783
10
11.072216031228805
20
-28.607253241384814
30
0
10
10.565502555003414
20
-29.260735775568136
30
0
10
9.9789646572444806
20
-29.849770375916307
30
0
10
8.4378929092824464
20
-31.053558116142401
30
0
10
7.4394924816224774
20
-31.591986662187988
30
0
10
6.3725180913749391
20
-31.952732569197941
30
0
0
SPLINE
5
120
100
AcDbEntity
8
0
100
AcDbSpline
70
0
71
3
72
18
73
14
74
0
42
0.000000001
43
0.0000000001
44
0.0000000001
40
0
40
0
40
0
40
0
40
0.0781288946773874
40
0.0781288946773874
40
0.15625778935477302
40
0.15625778935477302
40
0.23438668403215837
40
0.23438668403215837
40
0.31251557870954433
40
0.31251557870954433
40
0.37782108392024305
40
0.37782108392024305
40
0.44312658913094344
40
0.44312658913094344
40
0.44312658913094344
40
0.44312658913094344
10
9.5338295385965584
20
-25.382154124189434
30
0
10
9.7942013899036713
20
-25.38764056984304
30
0
10
10.051012319562103
20
-25.443930974455171
30
0
10
10.528602101252901
20
-25.651782865426949
30
0
10
10.744814934665756
20
-25.801357174420865
30
0
10
11.107736542500357
20
-26.17496434073697
30
0
10
11.250975588543646
20
-26.395425309917528
30
0
10
11.44488517210389
20
-26.878843846549604
30
0
10
11.493701828313119
20
-27.13717966930745
30
0
10
11.489903007182098
20
-27.615279243750965
30
0
10
11.4526460002568
20
-27.831222028611524
30
0
10
11.310022098212402
20
-28.242567977556444
30
0
10
11.205607203756534
20
-28.435225447471669
30
0
10
11.072216031228798
20
-28.6072532413848
30
0
0
LINE
5
121
100
AcDbEntity
8
0
100
AcDbLine
10
9.5338295385965584
20
-25.382154124189434
30
0
11
-12.996522661019121
21
-24.907404060850542
31
0
0
ARC
5
122
100
AcDbEntity
8
0
100
AcDbCircle
10
-9.3976826056986233
20
-19.982127392863177
30
0
40
6.0999999999999979
210
0
220
0
230
1
100
AcDbArc
50
123.74087989851532
51
233.84485245870394
0
LINE
5
123
100
AcDbEntity
8
0
100
AcDbLine
10
-12.785853650165038
20
-14.909623378725845
30
0
11
11.385628309947393
21
-15.418954635063418
31
0
0
ENDSEC
0
SECTION
2
OBJECTS
0
DICTIONARY
5
C
100
AcDbDictionary
3
ACAD_GROUP
350
D
3
ACAD_MLINESTYLE
350
17
0
DICTIONARY
5
D
100
AcDbDictionary
0
DICTIONARY
5
1A
330
C
100
AcDbDictionary
0
DICTIONARY
5
17
100
AcDbDictionary
0
ENDSEC
0
EOF
