0
SECTION
2
HEADER
9
$INSUNITS
70
4
9
$ACADVER
1
AC1014
9
$HANDSEED
5
FFFF
0
ENDSEC
0
SECTION
2
TABLES
0
TABLE
2
VPORT
5
8
100
AcDbSymbolTable
0
ENDTAB
0
TABLE
2
LTYPE
5
5
100
AcDbSymbolTable
0
LTYPE
5
14
100
AcDbSymbolTableRecord
100
AcDbLinetypeTableRecord
2
BYBLOCK
70
0
0
LTYPE
5
15
100
AcDbSymbolTableRecord
100
AcDbLinetypeTableRecord
2
BYLAYER
70
0
0
ENDTAB
0
TABLE
2
LAYER
5
2
100
AcDbSymbolTable
70
2
0
LAYER
5
50
100
AcDbSymbolTableRecord
100
AcDbLayerTableRecord
2
0
70
0
6
CONTINUOUS
0
ENDTAB
0
TABLE
2
STYLE
5
3
100
AcDbSymbolTable
70
1
0
STYLE
5
11
100
AcDbSymbolTableRecord
100
AcDbTextStyleTableRecord
2
STANDARD
70
0
0
ENDTAB
0
TABLE
2
VIEW
5
6
100
AcDbSymbolTable
70
0
0
ENDTAB
0
TABLE
2
UCS
5
7
100
AcDbSymbolTable
70
0
0
ENDTAB
0
TABLE
2
APPID
5
9
100
AcDbSymbolTable
70
2
0
APPID
5
12
100
AcDbSymbolTableRecord
100
AcDbRegAppTableRecord
2
ACAD
70
0
0
ENDTAB
0
TABLE
2
DIMSTYLE
5
A
100
AcDbSymbolTable
70
1
0
ENDTAB
0
TABLE
2
BLOCK_RECORD
5
1
100
AcDbSymbolTable
70
1
0
BLOCK_RECORD
5
1F
100
AcDbSymbolTableRecord
100
AcDbBlockTableRecord
2
*MODEL_SPACE
0
BLOCK_RECORD
5
1B
100
AcDbSymbolTableRecord
100
AcDbBlockTableRecord
2
*PAPER_SPACE
0
ENDTAB
0
ENDSEC
0
SECTION
2
BLOCKS
0
BLOCK
5
20
100
AcDbEntity
100
AcDbBlockBegin
2
*MODEL_SPACE
0
ENDBLK
5
21
100
AcDbEntity
100
AcDbBlockEnd
0
BLOCK
5
1C
100
AcDbEntity
100
AcDbBlockBegin
2
*PAPER_SPACE
0
ENDBLK
5
1D
100
AcDbEntity
100
AcDbBlockEnd
0
ENDSEC
0
SECTION
2
ENTITIES
0
SPLINE
5
100
100
AcDbEntity
8
0
100
AcDbSpline
70
0
71
3
72
12
73
8
74
0
42
0.000000001
43
0.0000000001
44
0.0000000001
40
0
40
0
40
0
40
0
40
0.39064447338692715
40
0.39064447338692715
40
0.72853717277265351
40
0.72853717277265351
40
1.0664298721583798
40
1.0664298721583798
40
1.0664298721583798
40
1.0664298721583798
10
13.0059885536356
20
-24.281133908828046
30
0
10
12.771394102567299
20
-25.561975622117771
30
0
10
12.288865634025028
20
-26.784750277617242
30
0
10
10.977233239471067
20
-28.828527428036068
30
0
10
10.213108345326308
20
-29.666872141919718
30
0
10
8.437892909282418
20
-31.053558116142383
30
0
10
7.4394924816224473
20
-31.591986662187995
30
0
10
6.3725180913748876
20
-31.952732569197956
30
0
0
SPLINE
5
101
100
AcDbEntity
8
0
100
AcDbSpline
70
4
71
5
72
21
73
15
74
0
42
0.000000001
43
0.0000000001
44
0.0000000001
40
0.032132181414730288
40
0.032132181414730288
40
0.032132181414730288
40
0.032132181414730288
40
0.032132181414730288
40
0.032132181414730288
40
0.10000000000000001
40
0.20000000000000001
40
0.30000000000000004
40
0.40000000000000002
40
0.5
40
0.59999999999999998
40
0.69999999999999996
40
0.79999999999999993
40
0.89999999999999991
40
0.90550240984644725
40
0.90550240984644725
40
0.90550240984644725
40
0.90550240984644725
40
0.90550240984644725
40
0.90550240984644725
41
1
41
1
41
1
41
1
41
1
41
1
41
1
41
1
41
1
41
1
41
1
41
1
41
1
41
1
41
1
10
-20.288842524049883
20
50.992093192882933
30
0
10
-19.190770047311506
20
49.568227935029299
30
0
10
-16.519167699663509
20
46.065800505076368
30
0
10
-12.43206321837614
20
40.553942374312307
30
0
10
-7.2120005273468646
20
33.156256382970568
30
0
10
-1.3058438635555483
20
24.068229618950703
30
0
10
4.0570577540082011
20
14.771156122320104
30
0
10
8.3512312265482329
20
5.941612885495009
30
0
10
11.459954852326131
20
-2.3693385303815493
30
0
10
13.306090246528665
20
-10.127952846634464
30
0
10
13.798197161730013
20
-15.980523443152823
30
0
10
13.62174445433193
20
-20.150423916729338
30
0
10
13.264433548884888
20
-22.8510061611812
30
0
10
13.018959703706489
20
-24.210313861702275
30
0
10
13.005988553635628
20
-24.281133908828046
30
0
0
SPLINE
5
102
100
AcDbEntity
8
0
100
AcDbSpline
70
0
71
3
72
14
73
10
74
0
42
0.000000001
43
0.0000000001
44
0.0000000001
40
0
40
0
40
0
40
0
40
0.19532223669346377
40
0.19532223669346377
40
0.39064447338692798
40
0.39064447338692798
40
0.55094043728669628
40
0.55094043728669628
40
0.7112364011864647
40
0.7112364011864647
40
0.7112364011864647
40
0.7112364011864647
10
-26.666323132326522
20
52.315046996203179
30
0
10
-26.096453312408542
20
52.629921417346594
30
0
10
-25.470529782356735
20
52.830477219553586
30
0
10
-24.177038019244897
20
52.980374216644329
30
0
10
-23.521836272447693
20
52.928282314535728
30
0
10
-22.380677106665424
20
52.60747910651682
30
0
10
-21.892785040390997
20
52.38135330554627
30
0
10
-21.007169443467419
20
51.783293149951191
30
0
10
-20.615144006304146
20
51.415206743227102
30
0
10
-20.288842524049883
20
50.992093192882933
30
0
0
LINE
5
103
100
AcDbEntity
8
0
100
AcDbLine
10
-26.666323132326522
20
52.315046996203179
30
0
11
-52.820159692750657
21
37.864072651170808
31
0
0
ARC
5
104
100
AcDbEntity
8
0
100
AcDbCircle
10
-50.402044685925524
20
33.487690605031901
30
0
40
4.9999999999999902
210
0
220
0
230
1
100
AcDbArc
50
118.92229453767841
51
208.25441668660358
0
LINE
5
105
100
AcDbEntity
8
0
100
AcDbLine
10
-54.806315932922146
20
31.120752755641089
30
0
11
-40.456552945848109
21
4.4194819379671602
31
0
0
SPLINE
5
106
100
AcDbEntity
8
0
100
AcDbSpline
70
4
71
5
72
35
73
29
74
0
42
0.000000001
43
0.0000000001
44
0.0000000001
40
0
40
0
40
0
40
0
40
0
40
0
40
0.040000000000000001
40
0.080000000000000002
40
0.12
40
0.16
40
0.20000000000000001
40
0.24000000000000002
40
0.28000000000000003
40
0.32000000000000001
40
0.35999999999999999
40
0.39999999999999997
40
0.43999999999999995
40
0.47999999999999993
40
0.51999999999999991
40
0.55999999999999994
40
0.59999999999999998
40
0.64000000000000001
40
0.68000000000000005
40
0.72000000000000008
40
0.76000000000000012
40
0.80000000000000016
40
0.84000000000000019
40
0.88000000000000023
40
0.92000000000000026
40
0.95819346372593095
40
0.95819346372593095
40
0.95819346372593095
40
0.95819346372593095
40
0.95819346372593095
40
0.95819346372593095
41
1
41
1
41
1
41
1
41
1
41
1
41
1
41
1
41
1
41
1
41
1
41
1
41
1
41
1
41
1
41
1
41
1
41
1
41
1
41
1
41
1
41
1
41
1
41
1
41
1
41
1
41
1
41
1
41
1
10
-40.456552945848109
20
4.4194819379671593
30
0
10
-40.180620944537246
20
3.8799814412808886
30
0
10
-39.66877632070225
20
2.8068701991198015
30
0
10
-39.021072409668939
20
1.2148752275661319
30
0
10
-38.398177615560165
20
-0.87237150359473459
30
0
10
-38.010913432283637
20
-3.4267974533752388
30
0
10
-37.978220966137137
20
-5.9411665431516036
30
0
10
-38.222719458446043
20
-8.4447069236841958
30
0
10
-38.606563705312638
20
-10.98899025592897
30
0
10
-38.955244024781905
20
-13.631531115651942
30
0
10
-39.091996124495765
20
-16.412732050681711
30
0
10
-38.865403196414753
20
-19.337883399554951
30
0
10
-38.187445174241077
20
-22.349613086095346
30
0
10
-37.033728416566376
20
-25.336419774805012
30
0
10
-35.421256983131705
20
-28.162725156116686
30
0
10
-33.393277717973916
20
-30.692914287989304
30
0
10
-31.002515402514597
20
-32.816093470026516
30
0
10
-28.293469504441422
20
-34.47536619715752
30
0
10
-25.300777402676829
20
-35.660615022236662
30
0
10
-22.051710715914204
20
-36.392883571751767
30
0
10
-18.567312538338612
20
-36.711945822274316
30
0
10
-14.864081113787828
20
-36.663609649034377
30
0
10
-10.95566150982865
20
-36.28584199039225
30
0
10
-6.8532226145722577
20
-35.60721139196567
30
0
10
-2.6041767348874068
20
-34.657400148439102
30
0
10
0.92726550565481081
20
-33.691557983844277
30
0
10
3.6420674565929243
20
-32.85770480564382
30
0
10
5.4712047166293596
20
-32.257468197198683
30
0
10
6.3725180913748938
20
-31.952732569197956
30
0
0
LWPOLYLINE
5
107
100
AcDbEntity
8
0
100
AcDbPolyline
90
4
70
1
43
0.0
10
-6.0095115612322036
20
-25.054631407000507
42
0.52114379161375457
10
-5.7988425503781258
20
-15.056850724875805
10
-12.785853650165038
20
-14.909623378725845
42
0.52114379161375435
10
-12.996522661019119
20
-24.907404060850542
0
CIRCLE
5
108
100
AcDbEntity
8
0
100
AcDbCircle
10
-28.960831549390349
20
24.146491059226364
30
0
40
4.7999999999999998
210
0
220
-0
230
1
0
CIRCLE
5
109
100
AcDbEntity
8
0
100
AcDbCircle
10
-11.253085378550542
20
22.324158874704594
30
0
40
2.7499999999999991
210
0
220
-0
230
1
0
CIRCLE
5
110
100
AcDbEntity
8
0
100
AcDbCircle
10
0
20
0
30
0
40
2.75
210
0
220
-0
230
1
0
ENDSEC
0
SECTION
2
OBJECTS
0
DICTIONARY
5
C
100
AcDbDictionary
3
ACAD_GROUP
350
D
3
ACAD_MLINESTYLE
350
17
0
DICTIONARY
5
D
100
AcDbDictionary
0
DICTIONARY
5
1A
330
C
100
AcDbDictionary
0
DICTIONARY
5
17
100
AcDbDictionary
0
ENDSEC
0
EOF
